<svg width="85" height="42" viewBox="0 0 85 42" fill="none" xmlns="http://www.w3.org/2000/svg">
<path d="M13.1561 13.0555H13.1532C10.7552 13.0555 8.81116 14.7831 8.81116 16.9142V16.9168C8.81116 19.0478 10.7552 20.7754 13.1532 20.7754H13.1561C15.5541 20.7754 17.4981 19.0478 17.4981 16.9168V16.9142C17.4981 14.7831 15.5541 13.0555 13.1561 13.0555Z" fill="#AFB1B8"/>
<path d="M45.2049 11.822C45.1981 8.86199 43.8722 6.02492 41.5173 3.93165C39.1624 1.83838 35.9703 0.65937 32.6396 0.652649V0.652649C29.3079 0.658026 26.1144 1.83644 23.7583 3.92986C21.4021 6.02328 20.0754 8.86111 20.0686 11.822V11.822V28.1448C20.0686 28.1448 45.202 25.6571 45.2049 11.8245V11.822Z" fill="#AFB1B8"/>
<path d="M0.0098877 33.5022C0.0159287 35.5618 0.939037 37.5356 2.5775 38.9922C4.21596 40.4488 6.43656 41.2698 8.75407 41.2758V41.2758C11.0711 41.2698 13.2912 40.4491 14.9296 38.9931C16.568 37.537 17.4915 35.5639 17.4982 33.5048V33.5048V22.1471C17.4982 22.1471 0.0098877 23.8794 0.0098877 33.5022ZM8.75407 35.5372C8.30119 35.5372 7.85848 35.4179 7.48192 35.1942C7.10537 34.9706 6.81188 34.6528 6.63857 34.281C6.46526 33.9091 6.41991 33.5 6.50826 33.1052C6.59662 32.7105 6.8147 32.3479 7.13493 32.0633C7.45517 31.7787 7.86317 31.5849 8.30735 31.5064C8.75153 31.4278 9.21193 31.4681 9.63034 31.6222C10.0487 31.7762 10.4064 32.037 10.658 32.3717C10.9096 32.7063 11.0439 33.0997 11.0439 33.5022C11.045 33.7701 10.9866 34.0355 10.872 34.2833C10.7575 34.5311 10.589 34.7563 10.3762 34.9461C10.1635 35.1359 9.9107 35.2865 9.63233 35.3892C9.35395 35.4919 9.05549 35.5448 8.75407 35.5448V35.5372Z" fill="#AFB1B8"/>
<path d="M24.7401 31.8939V36.1595H23.8611V31.8939H24.7401ZM26.4393 33.7162V34.4017H24.4998V33.7162H26.4393ZM26.6443 31.8939V32.5824H24.4998V31.8939H26.6443ZM30.658 33.9271V34.1293C30.658 34.4535 30.6141 34.7445 30.5262 35.0023C30.4383 35.2601 30.3143 35.4799 30.1541 35.6615C29.994 35.8412 29.8026 35.9789 29.5799 36.0746C29.3592 36.1703 29.1141 36.2181 28.8445 36.2181C28.577 36.2181 28.3318 36.1703 28.1092 36.0746C27.8885 35.9789 27.6971 35.8412 27.535 35.6615C27.3729 35.4799 27.2469 35.2601 27.157 35.0023C27.0692 34.7445 27.0252 34.4535 27.0252 34.1293V33.9271C27.0252 33.601 27.0692 33.3099 27.157 33.0541C27.2449 32.7963 27.369 32.5765 27.5291 32.3949C27.6912 32.2133 27.8826 32.0746 28.1033 31.9789C28.326 31.8832 28.5711 31.8353 28.8387 31.8353C29.1082 31.8353 29.3533 31.8832 29.574 31.9789C29.7967 32.0746 29.9881 32.2133 30.1483 32.3949C30.3104 32.5765 30.4354 32.7963 30.5233 33.0541C30.6131 33.3099 30.658 33.601 30.658 33.9271ZM29.7703 34.1293V33.9213C29.7703 33.6947 29.7498 33.4955 29.7088 33.3236C29.6678 33.1517 29.6072 33.0072 29.5272 32.89C29.4471 32.7728 29.3494 32.6849 29.2342 32.6263C29.119 32.5658 28.9871 32.5355 28.8387 32.5355C28.6902 32.5355 28.5584 32.5658 28.4432 32.6263C28.3299 32.6849 28.2332 32.7728 28.1531 32.89C28.075 33.0072 28.0154 33.1517 27.9744 33.3236C27.9334 33.4955 27.9129 33.6947 27.9129 33.9213V34.1293C27.9129 34.3539 27.9334 34.5531 27.9744 34.7269C28.0154 34.8988 28.076 35.0443 28.1561 35.1635C28.2361 35.2806 28.3338 35.3695 28.449 35.4301C28.5643 35.4906 28.6961 35.5209 28.8445 35.5209C28.993 35.5209 29.1248 35.4906 29.2401 35.4301C29.3553 35.3695 29.452 35.2806 29.5301 35.1635C29.6082 35.0443 29.6678 34.8988 29.7088 34.7269C29.7498 34.5531 29.7703 34.3539 29.7703 34.1293ZM33.5115 35.0433C33.5115 34.9672 33.4998 34.8988 33.4764 34.8383C33.4549 34.7758 33.4139 34.7191 33.3533 34.6683C33.2928 34.6156 33.2078 34.5638 33.0984 34.5131C32.9891 34.4623 32.8475 34.4095 32.6736 34.3549C32.4803 34.2924 32.2967 34.222 32.1229 34.1439C31.951 34.0658 31.7986 33.975 31.6658 33.8715C31.535 33.766 31.4315 33.6439 31.3553 33.5052C31.2811 33.3666 31.244 33.2054 31.244 33.0219C31.244 32.8441 31.283 32.683 31.3611 32.5385C31.4393 32.392 31.5486 32.267 31.6893 32.1635C31.8299 32.058 31.9959 31.9769 32.1873 31.9203C32.3807 31.8636 32.5926 31.8353 32.8231 31.8353C33.1375 31.8353 33.4119 31.892 33.6463 32.0052C33.8807 32.1185 34.0623 32.2738 34.1912 32.4711C34.3221 32.6683 34.3875 32.8939 34.3875 33.1478H33.5145C33.5145 33.0228 33.4881 32.9135 33.4354 32.8197C33.3846 32.724 33.3065 32.6488 33.201 32.5941C33.0975 32.5394 32.9666 32.5121 32.8084 32.5121C32.6561 32.5121 32.5291 32.5355 32.4276 32.5824C32.326 32.6273 32.2498 32.6888 32.199 32.767C32.1483 32.8431 32.1229 32.9291 32.1229 33.0248C32.1229 33.097 32.1404 33.1625 32.1756 33.2211C32.2127 33.2797 32.2674 33.3344 32.3397 33.3851C32.4119 33.4359 32.5008 33.4838 32.6063 33.5287C32.7117 33.5736 32.8338 33.6176 32.9725 33.6605C33.2049 33.7308 33.409 33.8099 33.5848 33.8978C33.7625 33.9857 33.9109 34.0844 34.0301 34.1937C34.1492 34.3031 34.2391 34.4271 34.2996 34.5658C34.3602 34.7045 34.3904 34.8617 34.3904 35.0375C34.3904 35.223 34.3543 35.389 34.282 35.5355C34.2098 35.682 34.1053 35.806 33.9686 35.9076C33.8318 36.0092 33.6688 36.0863 33.4793 36.139C33.2899 36.1918 33.0779 36.2181 32.8436 36.2181C32.6326 36.2181 32.4246 36.1908 32.2195 36.1361C32.0145 36.0795 31.8279 35.9945 31.66 35.8812C31.494 35.7679 31.3611 35.6234 31.2615 35.4476C31.1619 35.2719 31.1121 35.0638 31.1121 34.8236H31.994C31.994 34.9564 32.0145 35.0687 32.0555 35.1605C32.0965 35.2523 32.1541 35.3265 32.2283 35.3832C32.3045 35.4398 32.3943 35.4808 32.4979 35.5062C32.6033 35.5316 32.7186 35.5443 32.8436 35.5443C32.9959 35.5443 33.1209 35.5228 33.2186 35.4799C33.3182 35.4369 33.3914 35.3773 33.4383 35.3011C33.4871 35.225 33.5115 35.139 33.5115 35.0433ZM36.8953 31.8939V36.1595H36.0193V31.8939H36.8953ZM38.2078 31.8939V32.5824H34.7274V31.8939H38.2078ZM41.5711 35.474V36.1595H39.3006V35.474H41.5711ZM39.5877 31.8939V36.1595H38.7088V31.8939H39.5877ZM41.2752 33.6312V34.2992H39.3006V33.6312H41.2752ZM41.5682 31.8939V32.5824H39.3006V31.8939H41.5682ZM42.0838 31.8939H43.6746C44.0008 31.8939 44.2811 31.9427 44.5154 32.0404C44.7518 32.1381 44.9334 32.2826 45.0604 32.474C45.1873 32.6654 45.2508 32.9008 45.2508 33.1801C45.2508 33.4086 45.2117 33.6049 45.1336 33.7689C45.0574 33.931 44.949 34.0668 44.8084 34.1761C44.6697 34.2836 44.5067 34.3695 44.3192 34.434L44.0408 34.5804H42.658L42.6522 33.8949H43.6805C43.8348 33.8949 43.9627 33.8676 44.0643 33.8129C44.1658 33.7582 44.242 33.682 44.2928 33.5844C44.3455 33.4867 44.3719 33.3734 44.3719 33.2445C44.3719 33.1078 44.3465 32.9896 44.2957 32.89C44.2449 32.7904 44.1678 32.7142 44.0643 32.6615C43.9608 32.6088 43.8309 32.5824 43.6746 32.5824H42.9627V36.1595H42.0838V31.8939ZM44.4686 36.1595L43.4959 34.2582L44.4246 34.2523L45.409 36.1185V36.1595H44.4686ZM49.0828 34.639H47.9959V33.9535H49.0828C49.2508 33.9535 49.3875 33.9261 49.493 33.8715C49.5984 33.8148 49.6756 33.7367 49.7244 33.6371C49.7733 33.5375 49.7977 33.4252 49.7977 33.3002C49.7977 33.1732 49.7733 33.0551 49.7244 32.9457C49.6756 32.8363 49.5984 32.7484 49.493 32.682C49.3875 32.6156 49.2508 32.5824 49.0828 32.5824H48.3006V36.1595H47.4217V31.8939H49.0828C49.4168 31.8939 49.7029 31.9545 49.9412 32.0756C50.1815 32.1947 50.3651 32.3597 50.492 32.5707C50.619 32.7816 50.6824 33.0228 50.6824 33.2943C50.6824 33.5697 50.619 33.808 50.492 34.0092C50.3651 34.2103 50.1815 34.3656 49.9412 34.475C49.7029 34.5844 49.4168 34.639 49.0828 34.639ZM54.1512 35.474V36.1595H51.8807V35.474H54.1512ZM52.1678 31.8939V36.1595H51.2889V31.8939H52.1678ZM53.8553 33.6312V34.2992H51.8807V33.6312H53.8553ZM54.1483 31.8939V32.5824H51.8807V31.8939H54.1483ZM56.6297 31.8939V36.1595H55.7537V31.8939H56.6297ZM57.9422 31.8939V32.5824H54.4617V31.8939H57.9422ZM61.3055 35.474V36.1595H59.035V35.474H61.3055ZM59.3221 31.8939V36.1595H58.4432V31.8939H59.3221ZM61.0096 33.6312V34.2992H59.035V33.6312H61.0096ZM61.3026 31.8939V32.5824H59.035V31.8939H61.3026ZM61.8182 31.8939H63.409C63.7352 31.8939 64.0154 31.9427 64.2498 32.0404C64.4861 32.1381 64.6678 32.2826 64.7947 32.474C64.9217 32.6654 64.9852 32.9008 64.9852 33.1801C64.9852 33.4086 64.9461 33.6049 64.868 33.7689C64.7918 33.931 64.6834 34.0668 64.5428 34.1761C64.4041 34.2836 64.241 34.3695 64.0535 34.434L63.7752 34.5804H62.3924L62.3865 33.8949H63.4149C63.5692 33.8949 63.6971 33.8676 63.7986 33.8129C63.9002 33.7582 63.9764 33.682 64.0272 33.5844C64.0799 33.4867 64.1063 33.3734 64.1063 33.2445C64.1063 33.1078 64.0809 32.9896 64.0301 32.89C63.9793 32.7904 63.9022 32.7142 63.7986 32.6615C63.6951 32.6088 63.5652 32.5824 63.409 32.5824H62.6971V36.1595H61.8182V31.8939ZM64.2029 36.1595L63.2303 34.2582L64.159 34.2523L65.1434 36.1185V36.1595H64.2029ZM67.8826 35.0433C67.8826 34.9672 67.8709 34.8988 67.8475 34.8383C67.826 34.7758 67.785 34.7191 67.7244 34.6683C67.6639 34.6156 67.5789 34.5638 67.4695 34.5131C67.3602 34.4623 67.2186 34.4095 67.0447 34.3549C66.8514 34.2924 66.6678 34.222 66.494 34.1439C66.3221 34.0658 66.1697 33.975 66.0369 33.8715C65.9061 33.766 65.8026 33.6439 65.7264 33.5052C65.6522 33.3666 65.6151 33.2054 65.6151 33.0219C65.6151 32.8441 65.6541 32.683 65.7322 32.5385C65.8104 32.392 65.9197 32.267 66.0604 32.1635C66.201 32.058 66.367 31.9769 66.5584 31.9203C66.7518 31.8636 66.9637 31.8353 67.1942 31.8353C67.5086 31.8353 67.783 31.892 68.0174 32.0052C68.2518 32.1185 68.4334 32.2738 68.5623 32.4711C68.6932 32.6683 68.7586 32.8939 68.7586 33.1478H67.8856C67.8856 33.0228 67.8592 32.9135 67.8065 32.8197C67.7557 32.724 67.6776 32.6488 67.5721 32.5941C67.4686 32.5394 67.3377 32.5121 67.1795 32.5121C67.0272 32.5121 66.9002 32.5355 66.7986 32.5824C66.6971 32.6273 66.6209 32.6888 66.5701 32.767C66.5193 32.8431 66.494 32.9291 66.494 33.0248C66.494 33.097 66.5115 33.1625 66.5467 33.2211C66.5838 33.2797 66.6385 33.3344 66.7108 33.3851C66.783 33.4359 66.8719 33.4838 66.9774 33.5287C67.0828 33.5736 67.2049 33.6176 67.3436 33.6605C67.576 33.7308 67.7801 33.8099 67.9559 33.8978C68.1336 33.9857 68.282 34.0844 68.4012 34.1937C68.5203 34.3031 68.6102 34.4271 68.6707 34.5658C68.7313 34.7045 68.7615 34.8617 68.7615 35.0375C68.7615 35.223 68.7254 35.389 68.6531 35.5355C68.5809 35.682 68.4764 35.806 68.3397 35.9076C68.2029 36.0092 68.0399 36.0863 67.8504 36.139C67.6609 36.1918 67.449 36.2181 67.2147 36.2181C67.0037 36.2181 66.7957 36.1908 66.5906 36.1361C66.3856 36.0795 66.199 35.9945 66.0311 35.8812C65.8651 35.7679 65.7322 35.6234 65.6326 35.4476C65.533 35.2719 65.4832 35.0638 65.4832 34.8236H66.3651C66.3651 34.9564 66.3856 35.0687 66.4266 35.1605C66.4676 35.2523 66.5252 35.3265 66.5994 35.3832C66.6756 35.4398 66.7654 35.4808 66.869 35.5062C66.9744 35.5316 67.0897 35.5443 67.2147 35.5443C67.367 35.5443 67.492 35.5228 67.5897 35.4799C67.6893 35.4369 67.7625 35.3773 67.8094 35.3011C67.8582 35.225 67.8826 35.139 67.8826 35.0433Z" fill="#AFB1B8"/>
</svg>
