<svg width="63" height="47" viewBox="0 0 63 47" fill="none" xmlns="http://www.w3.org/2000/svg">
<path d="M4.76679 38.6879C5.01046 38.964 5.14027 39.3099 5.13346 39.6648C5.1459 39.8964 5.10128 40.1275 5.00293 40.3411C4.90458 40.5548 4.755 40.7454 4.56528 40.8989C4.0919 41.2262 3.50544 41.3863 2.91358 41.3496H0.0098877V35.1581H2.85412C3.41555 35.1239 3.97252 35.2693 4.42984 35.5695C4.61352 35.7102 4.75897 35.8881 4.8547 36.0892C4.95044 36.2902 4.99385 36.5089 4.98151 36.7279C4.9982 37.0694 4.88104 37.4052 4.65117 37.6746C4.43048 37.9206 4.12549 38.0912 3.78568 38.1586C4.1709 38.2229 4.51862 38.4105 4.76679 38.6879ZM1.36098 37.7533H2.57663C2.85292 37.772 3.12732 37.6989 3.34963 37.5476C3.4409 37.4718 3.51192 37.3779 3.55717 37.273C3.60242 37.1681 3.6207 37.0551 3.6106 36.9426C3.61917 36.8306 3.60051 36.7183 3.55596 36.6137C3.5114 36.5091 3.44206 36.4148 3.35293 36.3377C3.12397 36.1821 2.84104 36.1079 2.55681 36.129H1.36098V37.7533ZM3.46855 40.1276C3.56612 40.0501 3.64281 39.953 3.69266 39.8438C3.74251 39.7347 3.76417 39.6165 3.75594 39.4985C3.76339 39.3791 3.74074 39.2597 3.68976 39.1495C3.63879 39.0394 3.56084 38.9415 3.46194 38.8633C3.2241 38.7019 2.93159 38.6226 2.63609 38.6395H1.36098V40.3424H2.65261C2.94334 40.3577 3.23111 40.282 3.46855 40.1276Z" fill="#AFB1B8"/>
<path d="M10.5808 41.3496L8.99846 38.9299H8.40385V41.3496H7.04285V35.1581H9.6195C10.269 35.1166 10.9111 35.305 11.4132 35.6844C11.7734 36.0204 11.9907 36.4632 12.0258 36.9329C12.0609 37.4027 11.9116 37.8684 11.6048 38.2463C11.287 38.5798 10.8527 38.8021 10.376 38.8754L12.0607 41.3496H10.5808ZM8.40385 38.086H9.5171C10.2901 38.086 10.6766 37.7734 10.6766 37.1483C10.6845 37.0207 10.6633 36.8929 10.6144 36.7732C10.5655 36.6534 10.4899 36.5443 10.3925 36.4527C10.1482 36.2667 9.83362 36.1764 9.5171 36.2016H8.39063L8.40385 38.086Z" fill="#AFB1B8"/>
<path d="M18.0201 40.1033H15.308L14.829 41.3494H13.4019L15.8927 35.2275H17.4354L19.9162 41.3494H18.4892L18.0201 40.1033ZM17.6567 39.1656L16.6657 36.5523L15.6747 39.1656H17.6567Z" fill="#AFB1B8"/>
<path d="M27.3323 41.3494H25.9812L22.952 37.1391V41.3494H21.6042V35.158H22.952L25.9812 39.3925V35.158H27.3323V41.3494Z" fill="#AFB1B8"/>
<path d="M35.0425 39.8675C34.7631 40.335 34.3375 40.7152 33.8202 40.9594C33.2321 41.2314 32.5794 41.3655 31.9207 41.3496H29.5159V35.1581H31.9207C32.5783 35.1424 33.2301 35.2732 33.8202 35.5392C34.3374 35.7779 34.7635 36.1543 35.0425 36.619C35.3206 37.1226 35.4655 37.679 35.4655 38.2433C35.4655 38.8076 35.3206 39.3639 35.0425 39.8675ZM33.4965 39.7193C33.8821 39.308 34.0941 38.7838 34.0941 38.2418C34.0941 37.6997 33.8821 37.1755 33.4965 36.7642C33.0304 36.3917 32.4226 36.2025 31.8051 36.2379H30.867V40.2456H31.8051C32.4226 40.281 33.0304 40.0919 33.4965 39.7193Z" fill="#AFB1B8"/>
<path d="M18.8657 0.719299C18.8657 0.719299 36.3044 6.74744 35.9344 15.4705V30.2248C35.9344 30.2248 18.509 24.1936 18.8723 15.4705L18.8657 0.719299Z" fill="#AFB1B8"/>
<path d="M51.4702 26.7706C54.7637 24.6953 58.5732 23.4099 62.5498 23.0321V18.4135C57.9678 20.0304 54.0807 22.9623 51.4702 26.7706Z" fill="#AFB1B8"/>
<path d="M49.4915 28.162C52.1872 23.1922 56.8604 19.3571 62.5499 17.4457V4.13721C62.5499 4.13721 37.7149 12.7242 38.2401 25.1464V46.1527C38.2401 46.1527 39.3468 45.7685 41.0877 45.0487C41.0877 44.3772 41.0877 43.6997 41.167 43.0191C41.6809 37.2521 44.6753 31.9081 49.4915 28.162Z" fill="#AFB1B8"/>
<path d="M47.1296 35.9656C47.2601 34.5088 47.5511 33.0677 47.9984 31.6646C44.9994 34.8996 43.1833 38.914 42.8054 43.1431C42.7691 43.5424 42.7493 43.9416 42.7394 44.353C44.1499 43.7329 45.7917 42.9586 47.5161 42.0482C47.076 40.0473 46.9459 37.9997 47.1296 35.9656Z" fill="#AFB1B8"/>
<path d="M48.1173 36.0412C47.952 37.8815 48.0553 39.7338 48.4246 41.5491C55.2098 37.8318 62.834 32.088 62.54 25.1464V24.5415C57.6922 25.0382 53.1567 26.9785 49.6303 30.0645C48.8047 31.9769 48.2947 33.9913 48.1173 36.0412Z" fill="#AFB1B8"/>
</svg>
