<svg width="94" height="45" viewBox="0 0 94 45" fill="none" xmlns="http://www.w3.org/2000/svg">
<path d="M47.4349 21.3609C46.9918 20.771 46.7798 20.0739 46.8301 19.3723V16.4891C46.8301 15.6052 47.0306 14.9336 47.4315 14.4741C47.8323 14.0146 48.5208 13.7858 49.497 13.7877C50.4142 13.7877 51.0654 13.9833 51.4504 14.3743C51.8704 14.8733 52.0747 15.4835 52.0279 16.099V16.7765H50.3871V16.0902C50.3929 15.8655 50.377 15.6409 50.3395 15.4185C50.3159 15.2665 50.2333 15.1258 50.1051 15.0196C49.9366 14.9051 49.7243 14.8496 49.5106 14.8642C49.2858 14.8497 49.0628 14.9083 48.8855 15.0284C48.7426 15.1461 48.6473 15.3003 48.6137 15.4684C48.5666 15.7037 48.545 15.9423 48.5492 16.1811V19.6802C48.5233 20.0178 48.5957 20.3556 48.7598 20.6628C48.8414 20.7667 48.9547 20.8492 49.0872 20.9009C49.2198 20.9527 49.3663 20.9718 49.5106 20.9561C49.7208 20.971 49.9294 20.9142 50.0915 20.7977C50.2252 20.6832 50.3112 20.5336 50.3361 20.3724C50.3744 20.1403 50.3915 19.9059 50.3871 19.6714V18.9616H52.0279V19.6098C52.074 20.2514 51.8747 20.8883 51.4606 21.4225C51.0835 21.8507 50.4414 22.0648 49.497 22.0648C48.5525 22.0648 47.8391 21.836 47.4349 21.3609Z" fill="#AFB1B8"/>
<path d="M54.2668 21.3902C53.8523 20.9414 53.6451 20.2874 53.6451 19.4221V16.3893C53.6451 15.5329 53.8523 14.8847 54.2668 14.4447C54.6812 14.0048 55.3742 13.7858 56.3458 13.7877C57.3106 13.7877 58.0003 14.0067 58.4147 14.4447C58.8292 14.8847 59.0398 15.5329 59.0398 16.3893V19.4221C59.0398 20.2786 58.8292 20.9356 58.4079 21.3873C57.9867 21.839 57.3004 22.0648 56.3458 22.0648C55.3912 22.0648 54.6846 21.836 54.2668 21.3902ZM57.1102 20.6628C57.2586 20.3817 57.3262 20.0738 57.3072 19.7653V16.052C57.3263 15.7495 57.2598 15.4475 57.1136 15.1721C57.0304 15.066 56.9142 14.9822 56.7785 14.9304C56.6427 14.8785 56.4928 14.8606 56.3458 14.8788C56.1984 14.8611 56.0482 14.8792 55.912 14.931C55.7758 14.9828 55.659 15.0663 55.5747 15.1721C55.4253 15.4467 55.3576 15.7492 55.3776 16.052V19.7829C55.357 20.0915 55.4247 20.3997 55.5747 20.6804C55.6703 20.775 55.7883 20.8508 55.9208 20.9028C56.0532 20.9548 56.197 20.9817 56.3424 20.9817C56.4879 20.9817 56.6317 20.9548 56.7641 20.9028C56.8965 20.8508 57.0145 20.775 57.1102 20.6804V20.6628Z" fill="#AFB1B8"/>
<path d="M61.0134 13.8762H62.78L64.1083 19.4719L65.4672 13.8762H67.1862L67.3595 21.9529H66.0889L65.953 16.3397L64.6417 21.9529H63.6225L62.2636 16.3192L62.1379 21.9529H60.8538L61.0134 13.8762Z" fill="#AFB1B8"/>
<path d="M69.3401 13.8762H72.0918C73.6772 13.8762 74.4698 14.6407 74.4698 16.1696C74.4698 17.634 73.6353 18.3652 71.9661 18.3633H71.0285V21.9529H69.3299L69.3401 13.8762ZM71.6909 17.328C71.8588 17.3464 72.0292 17.3331 72.1905 17.2891C72.3518 17.245 72.5001 17.1713 72.6252 17.0729C72.8199 16.8001 72.9059 16.4797 72.8698 16.1608C72.8786 15.9144 72.8512 15.6681 72.7882 15.4276C72.764 15.3473 72.7215 15.272 72.6632 15.206C72.6048 15.1401 72.5319 15.0848 72.4485 15.0434C72.2127 14.9458 71.952 14.9014 71.6909 14.9144H71.0319V17.328H71.6909Z" fill="#AFB1B8"/>
<path d="M76.9193 13.8762H78.7436L80.6154 21.9529H79.0323L78.6621 20.0907H77.0348L76.6543 21.9529H75.0475L76.9193 13.8762ZM78.4786 19.1551L77.8433 15.7649L77.2081 19.1551H78.4786Z" fill="#AFB1B8"/>
<path d="M82.1272 13.8762H83.3162L85.5924 18.4835V13.8762H87.0022V21.9529H85.8709L83.5812 17.1433V21.9529H82.1238L82.1272 13.8762Z" fill="#AFB1B8"/>
<path d="M90.3044 18.8735L88.4121 13.8876H90.0054L91.1604 17.0903L92.2441 13.8876H93.8035L91.935 18.8735V21.953H90.3044V18.8735Z" fill="#AFB1B8"/>
<path d="M50.0576 25.4843V25.9066H48.6715V29.1885H48.0906V25.9066H46.6978V25.4843H50.0576Z" fill="#AFB1B8"/>
<path d="M54.4026 29.1888H53.9541C53.9086 29.1913 53.8636 29.1787 53.8284 29.1536C53.7945 29.1321 53.7685 29.1026 53.7537 29.0686L53.3528 28.1888H51.43L51.0291 29.0686C51.0177 29.1054 50.9968 29.1395 50.9679 29.1683C50.9324 29.1929 50.8877 29.2054 50.8422 29.2035H50.3938L52.0924 25.4994H52.6836L54.4026 29.1888ZM51.5896 27.8134H53.1931L52.5137 26.3059C52.4636 26.1919 52.4216 26.0753 52.388 25.9569C52.3642 26.0273 52.3438 26.0947 52.3234 26.1534L52.2623 26.3088L51.5896 27.8134Z" fill="#AFB1B8"/>
<path d="M57.331 28.825C57.4374 28.8298 57.544 28.8298 57.6503 28.825C57.7422 28.8168 57.8331 28.8021 57.9221 28.781C58.0053 28.7634 58.0871 28.7408 58.1667 28.7135C58.2414 28.6871 58.3162 28.6549 58.3943 28.6226V27.7896H57.7149C57.6981 27.7904 57.6813 27.7882 57.6655 27.7832C57.6497 27.7781 57.6353 27.7703 57.6231 27.7602C57.612 27.7519 57.6032 27.7415 57.5973 27.7298C57.5914 27.7182 57.5886 27.7055 57.5892 27.6928V27.4083H58.9073V28.8279C58.7997 28.8944 58.6861 28.9532 58.5676 29.0039C58.4464 29.0555 58.3203 29.0977 58.1905 29.13C58.0516 29.1653 57.9095 29.1908 57.7658 29.2063C57.6011 29.2221 57.4355 29.2299 57.2698 29.2298C56.9768 29.2319 56.6861 29.1851 56.4137 29.0919C56.1594 29.0036 55.9283 28.8719 55.7343 28.7047C55.5452 28.5358 55.3963 28.3365 55.2961 28.1181C55.189 27.8726 55.136 27.6119 55.1398 27.3496C55.1362 27.0856 55.188 26.8233 55.2927 26.5752C55.3904 26.3557 55.5396 26.156 55.7309 25.9886C55.9248 25.8219 56.156 25.6912 56.4103 25.6043C56.7012 25.5099 57.01 25.4631 57.3208 25.4665C57.4789 25.4663 57.6369 25.4771 57.793 25.4987C57.9311 25.5182 58.0665 25.5496 58.1973 25.5926C58.3161 25.6312 58.43 25.6803 58.537 25.7393C58.6411 25.7972 58.7399 25.8619 58.8326 25.9329L58.6695 26.1616C58.6567 26.1825 58.6377 26.2001 58.6144 26.2125C58.5911 26.2249 58.5644 26.2316 58.537 26.232C58.4994 26.231 58.4629 26.2208 58.4317 26.2027C58.3807 26.1792 58.3264 26.1499 58.2652 26.1147C58.193 26.0756 58.1168 26.0422 58.0376 26.015C57.9363 25.9799 57.8318 25.9524 57.7251 25.9329C57.5828 25.9102 57.4383 25.8994 57.2936 25.9006C57.0695 25.8984 56.8469 25.9333 56.638 26.0033C56.4489 26.0687 56.2785 26.1688 56.1386 26.2966C55.9978 26.4297 55.8902 26.5865 55.8226 26.7571C55.6709 27.1583 55.6709 27.5908 55.8226 27.992C55.897 28.1662 56.0127 28.325 56.1623 28.4583C56.3017 28.5854 56.4708 28.6854 56.6583 28.7517C56.8744 28.8157 57.1033 28.8407 57.331 28.825Z" fill="#AFB1B8"/>
<path d="M62.7461 28.7662H64.601V29.1885H62.1788V25.4843H62.7597L62.7461 28.7662Z" fill="#AFB1B8"/>
<path d="M66.5307 29.1885H65.9497V25.4843H66.5307V29.1885Z" fill="#AFB1B8"/>
<path d="M68.6913 25.5019C68.7258 25.5189 68.7559 25.5418 68.7796 25.5693L71.2629 28.3617C71.2596 28.3177 71.2596 28.2736 71.2629 28.2297C71.2629 28.1886 71.2629 28.1475 71.2629 28.1094V25.4696H71.7691V29.1888H71.4769C71.4337 29.1918 71.3903 29.1847 71.3513 29.1683C71.316 29.1498 71.2849 29.1259 71.2595 29.0979L68.7796 26.3085C68.7796 26.3525 68.7796 26.3935 68.7796 26.4346C68.7796 26.4757 68.7796 26.5138 68.7796 26.549V29.1888H68.2938V25.4843H68.5962C68.629 25.4843 68.6614 25.4903 68.6913 25.5019Z" fill="#AFB1B8"/>
<path d="M76.0462 25.4843V25.8919H73.9876V27.115H75.6556V27.508H73.9876V28.7721H76.0462V29.1798H73.3896V25.4843H76.0462Z" fill="#AFB1B8"/>
<path d="M15.1716 2.60808L40.9667 8.93139V31.0894L15.1716 24.769V2.60808ZM13.5172 0.719299V25.8454L42.6178 32.9811V7.85796L13.5172 0.719299Z" fill="#AFB1B8"/>
<path d="M29.1138 44.6449L0.0098877 37.5032V12.3798L29.1138 19.5185V44.6449Z" fill="#AFB1B8"/>
<path d="M13.9996 2.32356L39.4583 8.56758L28.6314 17.9175L3.16929 11.6705L13.9996 2.32356ZM13.5172 0.719299L0.0098877 12.3803L29.1138 19.5188L42.6177 7.85783L13.5172 0.719299Z" fill="#AFB1B8"/>
<path d="M30.7513 43.2314L42.6177 32.9842L30.7513 30.0719V43.2314Z" fill="#AFB1B8"/>
</svg>
