<svg width="41" height="48" viewBox="0 0 41 48" fill="none" xmlns="http://www.w3.org/2000/svg">
<path fill-rule="evenodd" clip-rule="evenodd" d="M6.00989 0.952637L13.0177 7.58676L0.0098877 7.5791V39.7664H34.0099V27.4597L41.0099 34.0864V0.952637H6.00989ZM33.7023 26.681L13.8325 7.87059H33.7023V26.681ZM27.533 35.0582H5.38997V13.4106H6.95519V33.5923H27.533V35.0582ZM10.6188 44.0518L9.8009 45.7363L8.98303 44.0518H8.297L9.49084 46.2979V47.6064H10.111V46.2979L11.3024 44.0518H10.6188ZM11.6466 47.6064L11.9347 46.7788H13.3116L13.6022 47.6064H14.2467L12.9015 44.0518H12.3473L11.0045 47.6064H11.6466ZM12.6232 44.8062L13.1383 46.2808H12.108L12.6232 44.8062ZM15.88 46.1953C15.7905 46.332 15.7457 46.4826 15.7457 46.647C15.7457 46.9465 15.8507 47.1898 16.0607 47.377C16.2723 47.5625 16.5538 47.6553 16.9054 47.6553C17.257 47.6553 17.5597 47.5601 17.8136 47.3696L18.0138 47.6064H18.7023L18.1798 46.9888C18.3849 46.7088 18.4874 46.3499 18.4874 45.9121H17.9723C17.9723 46.1514 17.9226 46.3687 17.8234 46.564L17.1373 45.7534L17.379 45.5776C17.5499 45.4539 17.6728 45.3302 17.7477 45.2065C17.8225 45.0812 17.86 44.9445 17.86 44.7964C17.86 44.5718 17.777 44.3838 17.611 44.2324C17.4466 44.0794 17.235 44.0029 16.9762 44.0029C16.6897 44.0029 16.4619 44.0843 16.2926 44.2471C16.1233 44.4082 16.0387 44.6279 16.0387 44.9062C16.0387 45.0202 16.0656 45.1382 16.1193 45.2603C16.1746 45.3823 16.2714 45.5304 16.4098 45.7046C16.1461 45.8934 15.9695 46.057 15.88 46.1953ZM17.484 46.9814C17.3099 47.1149 17.1227 47.1816 16.9225 47.1816C16.7451 47.1816 16.6035 47.1304 16.4977 47.0278C16.3919 46.9253 16.339 46.7918 16.339 46.6274C16.339 46.437 16.4366 46.2677 16.632 46.1196L16.7076 46.0659L17.484 46.9814ZM16.8468 45.4067C16.6792 45.2 16.5953 45.0283 16.5953 44.8916C16.5953 44.7728 16.6295 44.6743 16.6979 44.5962C16.7662 44.5181 16.8582 44.479 16.9738 44.479C17.0812 44.479 17.1699 44.5124 17.2399 44.5791C17.3099 44.6442 17.3448 44.7231 17.3448 44.8159C17.3448 44.9559 17.2944 45.0706 17.1935 45.1602L17.1178 45.2212L16.8468 45.4067ZM22.6329 47.3379C22.8771 47.1247 23.017 46.8284 23.0529 46.4492H22.4376C22.4051 46.7031 22.3278 46.8846 22.2057 46.9937C22.0836 47.1027 21.9013 47.1572 21.6588 47.1572C21.3935 47.1572 21.1917 47.0563 21.0533 46.8545C20.9166 46.6527 20.8483 46.3597 20.8483 45.9756V45.6606C20.8515 45.2814 20.9248 44.9941 21.068 44.7988C21.2129 44.6019 21.4196 44.5034 21.6881 44.5034C21.9192 44.5034 22.0942 44.5604 22.213 44.6743C22.3335 44.7866 22.4083 44.9705 22.4376 45.2261H23.0529C23.0138 44.8371 22.8746 44.536 22.6354 44.3228C22.3961 44.1095 22.0804 44.0029 21.6881 44.0029C21.3968 44.0029 21.1396 44.0721 20.9166 44.2104C20.6953 44.3488 20.5252 44.5457 20.4064 44.8013C20.2876 45.0568 20.2281 45.3522 20.2281 45.6875V46.0195C20.233 46.3467 20.2941 46.634 20.4113 46.8813C20.5284 47.1287 20.6945 47.32 20.9093 47.4551C21.1258 47.5885 21.3756 47.6553 21.6588 47.6553C22.0641 47.6553 22.3888 47.5495 22.6329 47.3379ZM26.2633 46.8398C26.3837 46.5762 26.444 46.2702 26.444 45.9219V45.7241C26.4423 45.3774 26.3805 45.0739 26.2584 44.8135C26.1364 44.5514 25.963 44.3512 25.7384 44.2129C25.5154 44.0729 25.2591 44.0029 24.9694 44.0029C24.6796 44.0029 24.4225 44.0737 24.1979 44.2153C23.9749 44.3553 23.8016 44.5579 23.6779 44.8232C23.5558 45.0885 23.4948 45.3945 23.4948 45.7412V45.9414C23.4964 46.2816 23.5582 46.5819 23.6803 46.8423C23.804 47.1027 23.9781 47.3037 24.2028 47.4453C24.429 47.5853 24.6862 47.6553 24.9742 47.6553C25.2656 47.6553 25.5227 47.5853 25.7457 47.4453C25.9703 47.3037 26.1429 47.1019 26.2633 46.8398ZM25.6017 44.8306C25.7514 45.0405 25.8263 45.3424 25.8263 45.7363V45.9219C25.8263 46.3223 25.7522 46.6266 25.6041 46.835C25.4576 47.0433 25.2477 47.1475 24.9742 47.1475C24.7041 47.1475 24.4925 47.0409 24.3395 46.8276C24.1881 46.6144 24.1124 46.3125 24.1124 45.9219V45.7168C24.1157 45.3343 24.1922 45.0389 24.3419 44.8306C24.4933 44.6206 24.7024 44.5156 24.9694 44.5156C25.2428 44.5156 25.4536 44.6206 25.6017 44.8306Z" fill="#AFB1B8"/>
</svg>
