<svg width="45" height="42" viewBox="0 0 45 42" fill="none" xmlns="http://www.w3.org/2000/svg">
<path d="M7.4161 41.0541C7.43202 41.0544 7.44769 41.0576 7.4622 41.0633C7.47671 41.069 7.48977 41.0771 7.50062 41.0872L7.71874 41.2957C7.54944 41.4645 7.34018 41.5994 7.10529 41.6914C6.83022 41.7917 6.53377 41.8402 6.23554 41.8335C5.95531 41.8386 5.67688 41.7934 5.4176 41.7009C5.18372 41.6159 4.97358 41.4882 4.80142 41.3265C4.62571 41.1588 4.49037 40.9623 4.40335 40.7484C4.30806 40.5101 4.26102 40.2592 4.2643 40.0069C4.26044 39.7529 4.3113 39.5006 4.41426 39.2629C4.50951 39.0477 4.65318 38.8512 4.83686 38.6848C5.02304 38.5217 5.24575 38.3935 5.49122 38.3081C5.75975 38.2177 6.04571 38.1726 6.3337 38.1754C6.60121 38.1698 6.8673 38.2109 7.11619 38.2963C7.33213 38.3777 7.5304 38.4907 7.70238 38.6303L7.51971 38.853C7.50709 38.8687 7.4914 38.8824 7.47336 38.8933C7.45181 38.9062 7.42576 38.912 7.39975 38.9099C7.37145 38.9082 7.34417 38.9 7.32068 38.8862L7.22252 38.827L7.0862 38.7512C7.02735 38.723 6.96631 38.6985 6.90353 38.6777C6.82266 38.6526 6.73972 38.6328 6.65542 38.6185C6.54843 38.6014 6.43975 38.5934 6.33097 38.5948C6.12359 38.5925 5.91779 38.6264 5.72569 38.6943C5.54654 38.7572 5.38483 38.8525 5.25129 38.9739C5.11533 39.1029 5.01057 39.2544 4.9432 39.4193C4.86641 39.6079 4.82856 39.8068 4.83141 40.0069C4.82814 40.21 4.86597 40.4121 4.9432 40.6039C5.00973 40.7674 5.11255 40.9179 5.24583 41.047C5.37071 41.1673 5.52549 41.2612 5.69843 41.3218C5.8764 41.3859 6.06743 41.4181 6.26008 41.4166C6.37136 41.418 6.4826 41.4117 6.59271 41.3976C6.7725 41.3785 6.94496 41.3243 7.09711 41.2389C7.17342 41.1951 7.24546 41.146 7.3125 41.092C7.34052 41.0687 7.37739 41.0552 7.4161 41.0541Z" fill="#AFB1B8"/>
<path d="M13.7142 40.0064C13.7176 40.2578 13.6677 40.5076 13.567 40.7432C13.4781 40.957 13.3382 41.1519 13.1563 41.3153C12.9744 41.4786 12.7548 41.6066 12.5118 41.6908C11.978 41.8678 11.388 41.8678 10.8542 41.6908C10.6128 41.6053 10.3946 41.477 10.2135 41.3142C10.0317 41.1478 9.89071 40.9512 9.79904 40.7361C9.60263 40.2589 9.60263 39.7374 9.79904 39.2602C9.89204 39.045 10.0329 38.8478 10.2135 38.6798C10.3961 38.522 10.6142 38.3986 10.8542 38.3173C11.3873 38.1372 11.9787 38.1372 12.5118 38.3173C12.754 38.4028 12.9732 38.5311 13.1553 38.694C13.3348 38.8587 13.4747 39.0528 13.567 39.2649C13.668 39.5022 13.7179 39.7535 13.7142 40.0064ZM13.1416 40.0064C13.1459 39.8054 13.1109 39.6051 13.038 39.4142C12.9769 39.2506 12.8776 39.0998 12.7463 38.9712C12.6185 38.8495 12.4611 38.754 12.2855 38.6916C11.8977 38.5621 11.4683 38.5621 11.0805 38.6916C10.9049 38.754 10.7475 38.8495 10.6197 38.9712C10.4865 39.0991 10.3862 39.2501 10.3252 39.4142C10.1865 39.7998 10.1865 40.2131 10.3252 40.5987C10.3868 40.7626 10.4871 40.9135 10.6197 41.0417C10.7477 41.1627 10.9051 41.2574 11.0805 41.3189C11.469 41.4451 11.897 41.4451 12.2855 41.3189C12.4609 41.2574 12.6183 41.1627 12.7463 41.0417C12.8771 40.9127 12.9763 40.762 13.038 40.5987C13.1112 40.4079 13.1463 40.2076 13.1416 40.0064Z" fill="#AFB1B8"/>
<path d="M18.0111 40.6275L18.0684 40.7601C18.0902 40.7127 18.1093 40.6701 18.1311 40.6275C18.1519 40.5829 18.1756 40.5394 18.202 40.4972L19.5952 38.2966C19.6225 38.2587 19.647 38.235 19.6743 38.2279C19.7113 38.2181 19.7501 38.2141 19.7888 38.2161H20.2005V41.7953H19.7125V39.1636C19.7125 39.1304 19.7125 39.0925 19.7125 39.0522C19.7098 39.0112 19.7098 38.9701 19.7125 38.9291L18.3111 41.1604C18.2933 41.1939 18.2648 41.2221 18.229 41.2419C18.1932 41.2616 18.1517 41.272 18.1093 41.2718H18.0302C17.9878 41.2723 17.9461 41.262 17.9102 41.2423C17.8744 41.2225 17.846 41.194 17.8285 41.1604L16.3862 38.9149C16.3862 38.9575 16.3862 39.0001 16.3862 39.0428C16.3862 39.0854 16.3862 39.1233 16.3862 39.1565V41.7882H15.9145V38.2161H16.3262C16.3649 38.2141 16.4036 38.2181 16.4407 38.2279C16.4745 38.2425 16.5015 38.2667 16.517 38.2966L17.9403 40.4996C17.9682 40.5403 17.9919 40.5831 18.0111 40.6275Z" fill="#AFB1B8"/>
<path d="M23.2542 40.4496V41.7903H22.7089V38.2159H23.9249C24.1544 38.2121 24.3833 38.2385 24.6038 38.2941C24.7802 38.3376 24.9439 38.4135 25.0836 38.5168C25.2047 38.6136 25.2981 38.7336 25.3563 38.8673C25.4206 39.0131 25.4521 39.1684 25.449 39.3245C25.4514 39.4812 25.417 39.6368 25.3481 39.7817C25.2825 39.9188 25.1818 40.0411 25.0536 40.1393C24.9137 40.2469 24.7493 40.3276 24.571 40.3762C24.3588 40.4351 24.1368 40.4631 23.914 40.4591L23.2542 40.4496ZM23.2542 40.0659H23.914C24.0573 40.0675 24.2 40.0491 24.3366 40.0114C24.4492 39.9785 24.5531 39.9261 24.6419 39.8575C24.7238 39.7919 24.7873 39.7109 24.8273 39.6206C24.872 39.5251 24.8942 39.4228 24.8928 39.3198C24.8991 39.2204 24.8804 39.121 24.8381 39.0286C24.7957 38.9361 24.7306 38.8528 24.6474 38.7844C24.4391 38.6431 24.1774 38.5747 23.914 38.5926H23.2542V40.0659Z" fill="#AFB1B8"/>
<path d="M30.5829 41.7951H30.1521C30.1089 41.7966 30.0665 41.7849 30.0322 41.762C30.0012 41.7397 29.9769 41.7112 29.9613 41.6791L29.5905 40.8144H27.7283L27.3439 41.6791C27.3297 41.7107 27.3062 41.7385 27.2757 41.7596C27.241 41.7839 27.1975 41.7965 27.153 41.7951H26.7222L28.3581 38.2156H28.9252L30.5829 41.7951ZM27.8837 40.4661H29.4214L28.7725 39.0092C28.7229 38.8996 28.6819 38.7872 28.6498 38.6728L28.5871 38.8599C28.568 38.9168 28.5462 38.9689 28.5272 39.0116L27.8837 40.4661Z" fill="#AFB1B8"/>
<path d="M32.9386 38.2322C32.9712 38.2478 32.9992 38.2697 33.0204 38.2962L35.4061 40.9945C35.4061 40.9518 35.4061 40.9092 35.4061 40.8689C35.4061 40.8286 35.4061 40.7884 35.4061 40.7505V38.2157H35.8941V41.7952H35.6215C35.5827 41.7962 35.5443 41.7889 35.5097 41.7739C35.476 41.7568 35.4464 41.7343 35.4224 41.7075L33.0395 39.0116C33.0421 39.0527 33.0421 39.0938 33.0395 39.1348C33.0395 39.1751 33.0395 39.2106 33.0395 39.2438V41.7952H32.5515V38.2157H32.8405C32.8742 38.2148 32.9077 38.2205 32.9386 38.2322Z" fill="#AFB1B8"/>
<path d="M39.9129 40.3714V41.7928H39.3676V40.3714L37.8599 38.2157H38.3479C38.39 38.2135 38.4315 38.2244 38.4651 38.2465C38.4948 38.2695 38.5197 38.2967 38.5388 38.327L39.4821 39.7176C39.5203 39.7768 39.553 39.8313 39.5803 39.8834C39.6075 39.9356 39.6294 39.9853 39.6484 40.0351L39.7193 39.8811C39.7458 39.8248 39.7768 39.7701 39.812 39.7176L40.7418 38.3176C40.7613 38.2896 40.7852 38.2641 40.8127 38.2417C40.845 38.2172 40.887 38.2045 40.9299 38.2062H41.4234L39.9129 40.3714Z" fill="#AFB1B8"/>
<path d="M17.7412 32.2088C17.9784 32.2348 18.2183 32.2562 18.461 32.2751C22.1398 30.8452 25.252 28.505 27.4085 25.5468C29.5649 22.5887 30.67 19.1439 30.5857 15.643L26.5314 12.1205C27.3557 15.8478 26.9701 19.7008 25.4177 23.2486C23.8653 26.7963 21.2073 29.8988 17.7412 32.2088Z" fill="#AFB1B8"/>
<path d="M16.2935 32.0449L16.4026 32.0639C20.1065 29.762 22.9304 26.5477 24.5091 22.8365C26.0878 19.1253 26.3487 15.088 25.2581 11.2466L19.4835 6.22937C21.8192 10.3534 22.7593 14.9688 22.1946 19.5388C21.6299 24.1088 19.5836 28.4456 16.2935 32.0449Z" fill="#AFB1B8"/>
<path d="M35.8777 19.7793C34.8967 23.6259 32.5139 27.095 29.0834 29.6716C28.0815 30.4283 27.0008 31.1024 25.8552 31.6852C28.6487 30.9718 31.2163 29.7106 33.36 27.9987C35.5038 26.2869 37.1664 24.1702 38.2198 21.8118L35.8777 19.7793Z" fill="#AFB1B8"/>
<path d="M34.9589 19.2128L31.6244 16.3157C31.5607 19.6188 30.4799 22.8467 28.4944 25.6641C26.5089 28.4815 23.6912 30.7854 20.3341 32.3365H20.3505C21.0986 32.3362 21.846 32.2975 22.5889 32.2204C25.7263 31.1078 28.4979 29.3377 30.6563 27.068C32.8148 24.7983 34.2929 22.0996 34.9589 19.2128Z" fill="#AFB1B8"/>
<path d="M16.7761 4.1136L12.7982 0.652649C9.24205 1.8466 6.18363 3.94553 4.0232 6.67472C1.86277 9.40392 0.700977 12.6362 0.68988 15.9486H0.68988C0.703208 19.6087 2.12109 23.1604 4.71911 26.0415C7.31714 28.9226 10.9469 30.9687 15.0339 31.8557C18.6823 27.9937 20.8184 23.2214 21.1317 18.2325C21.445 13.2435 19.9192 8.29764 16.7761 4.1136Z" fill="#AFB1B8"/>
<path d="M44.1499 18.68C44.1355 14.3375 42.1437 10.1765 38.6095 7.10588C35.0754 4.03527 30.2862 2.30468 25.2881 2.29218C22.9786 2.29011 20.6887 2.66039 18.5347 3.38423L42.8902 24.5453C43.7242 22.6748 44.1513 20.686 44.1499 18.68Z" fill="#AFB1B8"/>
</svg>
