<svg width="40" height="53" viewBox="0 0 40 53" fill="none" xmlns="http://www.w3.org/2000/svg">
<path fill-rule="evenodd" clip-rule="evenodd" d="M17.1235 3.88716H16.9869C16.7769 3.87444 16.567 3.86936 16.357 3.86427H16.357H16.3368H15.9017C15.5045 3.86427 15.0997 3.87444 14.6975 3.89479C14.6672 3.89258 14.6368 3.89258 14.6064 3.89479C10.9621 4.10127 7.3916 5.01215 4.09037 6.57756L3.65779 6.78608V28.9272L4.66968 28.5839C5.55761 28.2788 6.50373 28.0041 7.48274 27.7498C10.1292 27.0704 12.8466 26.7094 15.5779 26.6742V29.5833C15.2161 29.5858 14.8645 29.596 14.5128 29.6138H14.4294C12.3274 29.7291 10.2416 30.0493 8.20118 30.5699C5.61705 31.2169 3.12422 32.1883 0.781494 33.4612V5.06453C3.21458 3.64539 5.83522 2.57951 8.56546 1.8986C10.9626 1.27969 13.4268 0.961944 15.9017 0.952637H16.3292C16.8402 0.965351 17.3385 0.988237 17.8065 1.02384C19.0396 1.11041 20.2627 1.30526 21.462 1.60617V4.46948C20.2973 4.19815 19.1131 4.01959 17.9204 3.93547C17.8962 3.93343 17.872 3.93136 17.8477 3.92929C17.601 3.90824 17.3539 3.88716 17.1235 3.88716ZM22.1627 6.81402C22.7976 6.86234 23.4554 6.88522 24.1207 6.88522C26.7224 6.87571 29.313 6.54347 31.8338 5.89603C34.4167 5.2466 36.9085 4.27442 39.2509 3.0022V30.8928C36.8166 32.3111 34.1952 33.377 31.4645 34.0588C29.067 34.6753 26.603 34.9922 24.1283 35.0022C22.2532 35.0173 20.3836 34.7969 18.5629 34.3461V6.27492C18.9929 6.3741 19.4356 6.46564 19.8859 6.54193C20.6246 6.66653 21.4037 6.75808 22.1627 6.81402ZM36.3569 7.03017L35.3451 7.37092C34.4141 7.6837 33.4756 7.96342 32.532 8.21262C29.7848 8.91859 26.9613 9.28074 24.1257 9.29082C23.4655 9.29082 22.8583 9.27302 22.2714 9.23487L21.4645 9.18147V29.2705V31.9583L22.1576 32.0194C22.8002 32.0753 23.4629 32.1033 24.1308 32.1033C26.3643 32.0938 28.588 31.8059 30.7511 31.2463C32.5322 30.7995 34.2651 30.1769 35.9244 29.3874L36.3569 29.1789V7.03017Z" fill="#AFB1B8"/>
<path d="M2.74702 43.165C2.60155 43.0141 2.42617 42.8957 2.23225 42.8173C2.03833 42.7388 1.83018 42.7022 1.62129 42.7098C1.39868 42.7069 1.1777 42.7484 0.971155 42.8319C0.781789 42.9073 0.609654 43.0207 0.46521 43.165C0.322338 43.3098 0.211179 43.4831 0.138875 43.6736C0.0595669 43.8733 0.0200301 44.0867 0.0225082 44.3017V48.0957C0.0134605 48.3631 0.0644759 48.629 0.171762 48.8739C0.26132 49.0683 0.390613 49.2416 0.551221 49.3824C0.702841 49.5101 0.880866 49.6022 1.07234 49.652C1.25683 49.7038 1.44744 49.7304 1.639 49.7308C1.8503 49.7329 2.05942 49.6878 2.2512 49.5986C2.44084 49.5156 2.61266 49.3964 2.75714 49.2477C2.89803 49.1003 3.01041 48.9278 3.08853 48.7391C3.16962 48.5478 3.21094 48.3418 3.20996 48.1339V47.7092H2.21831V48.0474C2.22126 48.1629 2.20148 48.2778 2.16013 48.3856C2.12783 48.4664 2.07866 48.5392 2.01593 48.5992C1.9545 48.6489 1.88404 48.686 1.80849 48.7086C1.74152 48.7309 1.67159 48.7429 1.60106 48.7442C1.51252 48.7545 1.42285 48.7411 1.34111 48.7054C1.25937 48.6696 1.18847 48.6129 1.13559 48.5407C1.04211 48.3883 0.996283 48.2111 1.00404 48.0322V44.495C0.997889 44.2988 1.03958 44.1041 1.12547 43.9279C1.17695 43.8478 1.24978 43.7839 1.33566 43.7434C1.42155 43.703 1.51701 43.6876 1.61118 43.699C1.69665 43.696 1.78159 43.7138 1.85869 43.751C1.9358 43.7882 2.00278 43.8437 2.05388 43.9126C2.16484 44.0583 2.22287 44.2378 2.21831 44.4212V44.7493H3.19984V44.3627C3.20184 44.1357 3.16062 43.9105 3.07842 43.699C3.00516 43.5003 2.8924 43.3186 2.74702 43.165Z" fill="#AFB1B8"/>
<path d="M8.63881 43.1217C8.3226 42.8547 7.9235 42.7072 7.51055 42.7047C7.30856 42.7056 7.10826 42.7417 6.91859 42.8115C6.72602 42.8805 6.5483 42.9858 6.39494 43.1217C6.23065 43.2694 6.09957 43.4506 6.01042 43.6532C5.91052 43.885 5.86134 44.1356 5.86623 44.3881V48.027C5.85939 48.283 5.90861 48.5374 6.01042 48.7721C6.10017 48.9678 6.23141 49.1414 6.39494 49.2807C6.54654 49.4214 6.72457 49.5304 6.91859 49.6011C7.10826 49.6709 7.30856 49.707 7.51055 49.7079C7.71257 49.7075 7.91296 49.6714 8.1025 49.6011C8.29984 49.5294 8.48183 49.4207 8.63881 49.2807C8.79699 49.1388 8.92443 48.9656 9.01321 48.7721C9.11501 48.5374 9.16424 48.283 9.1574 48.027V44.3881C9.16228 44.1356 9.11311 43.885 9.01321 43.6532C8.92494 43.4527 8.79764 43.272 8.63881 43.1217ZM8.17587 48.027C8.18422 48.124 8.17083 48.2216 8.13669 48.3127C8.10254 48.4038 8.0485 48.4861 7.97855 48.5534C7.84757 48.6633 7.68239 48.7234 7.51181 48.7234C7.34123 48.7234 7.17606 48.6633 7.04508 48.5534C6.97513 48.4861 6.92109 48.4038 6.88694 48.3127C6.85279 48.2216 6.8394 48.124 6.84776 48.027V44.3881C6.8394 44.2911 6.85279 44.1935 6.88694 44.1024C6.92109 44.0113 6.97513 43.9291 7.04508 43.8617C7.17606 43.7519 7.34123 43.6917 7.51181 43.6917C7.68239 43.6917 7.84757 43.7519 7.97855 43.8617C8.0485 43.9291 8.10254 44.0113 8.13669 44.1024C8.17083 44.1935 8.18422 44.2911 8.17587 44.3881V48.027Z" fill="#AFB1B8"/>
<path d="M16.3772 49.6521V42.7633H15.4235L14.1713 46.4098H14.1536L12.8912 42.7633H11.9476V49.6521H12.9317V45.4613H12.9494L13.9132 48.4238H14.404L15.3754 45.4613H15.3931V49.6521H16.3772Z" fill="#AFB1B8"/>
<path d="M21.9679 43.2463C21.8164 43.0763 21.6251 42.947 21.4114 42.87C21.1811 42.795 20.94 42.7589 20.698 42.7631H19.2358V49.6519H20.2174V46.9615H20.7233C21.0296 46.9754 21.3343 46.9107 21.6087 46.7733C21.8319 46.6494 22.018 46.4676 22.1476 46.2469C22.2611 46.0637 22.3376 45.8598 22.3727 45.6468C22.4113 45.3876 22.4291 45.1257 22.4258 44.8636C22.4354 44.5328 22.4031 44.2021 22.3297 43.8795C22.2642 43.6411 22.1398 43.4233 21.9679 43.2463ZM21.462 45.3468C21.4577 45.4715 21.4267 45.5938 21.3709 45.7053C21.3148 45.8112 21.2261 45.896 21.118 45.9469C20.9726 46.0119 20.8139 46.0415 20.655 46.0333H20.2073V43.6913H20.7132C20.8655 43.6838 21.0174 43.7135 21.1559 43.7778C21.2574 43.836 21.338 43.925 21.3861 44.0321C21.4398 44.1531 21.469 44.2836 21.4721 44.416C21.4721 44.561 21.4721 44.7136 21.4721 44.8738C21.4721 45.034 21.4822 45.1993 21.4721 45.3468H21.462Z" fill="#AFB1B8"/>
<path d="M26.6176 42.7633H25.8131L24.2953 49.6521H25.2768L25.5652 48.1721H26.9034L27.1918 49.6521H28.1734L26.6176 42.7633ZM25.7119 47.2337L26.1951 44.7366H26.2128L26.6935 47.2337H25.7119Z" fill="#AFB1B8"/>
<path d="M32.9596 46.9133H32.9419L31.4595 42.7633H30.5159V49.6521H31.4974V45.5097H31.5176L33.0178 49.6521H33.9411V42.7633H32.9596V46.9133Z" fill="#AFB1B8"/>
<path d="M38.9575 42.7633L38.1682 45.502H38.148L37.3587 42.7633H36.319L37.6673 46.7404V49.6521H38.6488V46.7404L39.9972 42.7633H38.9575Z" fill="#AFB1B8"/>
<path d="M0.0098877 51.5972H0.482946V52.9246H0.804221V51.5972H1.27475V51.3251H0.0098877V51.5972Z" fill="#AFB1B8"/>
<path d="M3.9866 51.3251L3.36682 52.9246H3.70833L3.83988 52.5609H4.47737L4.61397 52.9246H4.96308L4.32812 51.3251H3.9866ZM3.93601 52.2914L4.15356 51.6989L4.37112 52.2914H3.93601Z" fill="#AFB1B8"/>
<path d="M7.91782 52.3348H8.28716V52.5407C8.1793 52.6272 8.04565 52.6747 7.9077 52.6755C7.84318 52.6791 7.77874 52.6672 7.71977 52.6406C7.6608 52.6141 7.609 52.5737 7.56872 52.5229C7.48391 52.4012 7.44206 52.2544 7.44982 52.1059C7.44982 51.7499 7.60413 51.5719 7.91023 51.5719C7.9908 51.5639 8.07157 51.5851 8.13793 51.6317C8.20428 51.6784 8.25183 51.7474 8.27198 51.8262L8.5882 51.7652C8.51989 51.4524 8.29475 51.2947 7.91023 51.2947C7.70457 51.2892 7.50458 51.3629 7.35116 51.5007C7.27058 51.5803 7.20823 51.6766 7.16847 51.7828C7.12871 51.8891 7.1125 52.0028 7.12096 52.1161C7.11164 52.3349 7.18481 52.5492 7.32586 52.7162C7.40423 52.797 7.49909 52.8597 7.6039 52.9001C7.70871 52.9405 7.82099 52.9576 7.933 52.9502C8.18326 52.9571 8.42641 52.8659 8.61096 52.6959V52.0652H7.91782V52.3348Z" fill="#AFB1B8"/>
<path d="M11.9324 51.3251H11.6086V52.9246H12.7293V52.6525H11.9324V51.3251Z" fill="#AFB1B8"/>
<path d="M15.3273 51.3251H15.0035V52.9246H15.3273V51.3251Z" fill="#AFB1B8"/>
<path d="M18.6464 52.3931L17.9912 51.3251H17.6775V52.9246H17.9785V51.8794L18.6211 52.9246H18.9424V51.3251H18.6464V52.3931Z" fill="#AFB1B8"/>
<path d="M21.6467 52.2202H22.4435V51.9481H21.6467V51.5972H22.5043V51.3251H21.3229V52.9246H22.5371V52.6525H21.6467V52.2202Z" fill="#AFB1B8"/>
<path d="M28.9221 51.9557H28.2922V51.3251H27.9709V52.9246H28.2922V52.2253H28.9221V52.9246H29.2434V51.3251H28.9221V51.9557Z" fill="#AFB1B8"/>
<path d="M31.94 52.2202H32.7394V51.9481H31.94V51.5972H32.8002V51.3251H31.6188V52.9246H32.8305V52.6525H31.94V52.2202Z" fill="#AFB1B8"/>
<path d="M36.0331 52.2202C36.3114 52.177 36.4531 52.0295 36.4531 51.7752C36.4611 51.7072 36.4508 51.6382 36.4232 51.5756C36.3956 51.513 36.3518 51.4589 36.2962 51.4192C36.1514 51.3465 35.9898 51.314 35.8282 51.3251H35.1503V52.9246H35.4715V52.2558H35.5348C35.6033 52.2516 35.6718 52.2638 35.7346 52.2914C35.7816 52.3204 35.8207 52.3606 35.8485 52.4084L36.1976 52.917H36.5821L36.3873 52.6042C36.3012 52.4498 36.1798 52.3182 36.0331 52.2202ZM35.7093 51.999H35.4715V51.5972H35.7245C35.8347 51.5883 35.9456 51.6013 36.0508 51.6354C36.0742 51.656 36.0927 51.6817 36.1049 51.7105C36.117 51.7393 36.1226 51.7705 36.1211 51.8018C36.1197 51.8331 36.1113 51.8636 36.0965 51.8911C36.0817 51.9187 36.0609 51.9425 36.0357 51.9609C35.9301 51.9933 35.8195 52.0062 35.7093 51.999Z" fill="#AFB1B8"/>
<path d="M39.1195 52.2202H39.9163V51.9481H39.1195V51.5972H39.9796V51.3251H38.7957V52.9246H40.0099V52.6525H39.1195V52.2202Z" fill="#AFB1B8"/>
</svg>
