<svg width="21" height="21" viewBox="0 0 21 21" fill="none" xmlns="http://www.w3.org/2000/svg">
<g clip-path="url(#clip0_1_692)">
<path d="M20.6076 6.67717C20.5608 5.6145 20.3889 4.88392 20.1428 4.25086C19.8888 3.57888 19.4981 2.97726 18.9862 2.47713C18.4861 1.96922 17.8805 1.57455 17.2163 1.32457C16.5796 1.07839 15.8528 0.906546 14.7902 0.859692C13.7195 0.808871 13.3797 0.797119 10.6643 0.797119C7.94893 0.797119 7.60905 0.808871 6.5424 0.855724C5.47973 0.902578 4.74915 1.07458 4.11624 1.3206C3.44411 1.57455 2.8425 1.96526 2.34237 2.47713C1.83446 2.97726 1.43994 3.58285 1.1898 4.24704C0.943628 4.88392 0.77178 5.61053 0.724927 6.67321C0.674105 7.74382 0.662354 8.0837 0.662354 10.7991C0.662354 13.5144 0.674105 13.8543 0.720959 14.921C0.767812 15.9836 0.939812 16.7142 1.18598 17.3473C1.43994 18.0193 1.83446 18.6209 2.34237 19.121C2.8425 19.6289 3.44808 20.0236 4.11227 20.2736C4.74915 20.5198 5.47576 20.6916 6.53859 20.7385C7.60508 20.7855 7.94511 20.7971 10.6605 20.7971C13.3759 20.7971 13.7157 20.7855 14.7824 20.7385C15.8451 20.6916 16.5756 20.5198 17.2085 20.2736C18.5526 19.7539 19.6153 18.6912 20.135 17.3473C20.381 16.7104 20.553 15.9836 20.5999 14.921C20.6467 13.8543 20.6585 13.5144 20.6585 10.7991C20.6585 8.0837 20.6545 7.74382 20.6076 6.67717ZM18.8066 14.8428C18.7636 15.8196 18.5995 16.347 18.4627 16.6987C18.1267 17.57 17.4352 18.2615 16.5639 18.5975C16.2123 18.7343 15.681 18.8983 14.7081 18.9412C13.6532 18.9882 13.3368 18.9998 10.6683 18.9998C7.99975 18.9998 7.6794 18.9882 6.62833 18.9412C5.65157 18.8983 5.12413 18.7343 4.7725 18.5975C4.33891 18.4373 3.94424 18.1833 3.6239 17.8512C3.2918 17.5269 3.03785 17.1362 2.8776 16.7026C2.74085 16.351 2.57679 15.8196 2.5339 14.8468C2.4869 13.7919 2.4753 13.4754 2.4753 10.8069C2.4753 8.13834 2.4869 7.81799 2.5339 6.76707C2.57679 5.79031 2.74085 5.26287 2.8776 4.91123C3.03785 4.47749 3.2918 4.08298 3.62787 3.76248C3.95203 3.43038 4.34273 3.17643 4.77646 3.01633C5.1281 2.87959 5.65951 2.71552 6.63229 2.67249C7.68719 2.62563 8.00372 2.61388 10.6721 2.61388C13.3446 2.61388 13.6609 2.62563 14.712 2.67249C15.6888 2.71552 16.2162 2.87959 16.5679 3.01633C17.0014 3.17643 17.3961 3.43038 17.7164 3.76248C18.0485 4.08679 18.3025 4.47749 18.4627 4.91123C18.5995 5.26287 18.7636 5.79413 18.8066 6.76707C18.8535 7.82196 18.8652 8.13834 18.8652 10.8069C18.8652 13.4754 18.8535 13.7879 18.8066 14.8428Z" fill="#AFB1B8"/>
<path d="M10.6643 5.66132C7.82793 5.66132 5.52661 7.96249 5.52661 10.799C5.52661 13.6356 7.82793 15.9368 10.6643 15.9368C13.5009 15.9368 15.8021 13.6356 15.8021 10.799C15.8021 7.96249 13.5009 5.66132 10.6643 5.66132ZM10.6643 14.1318C8.82422 14.1318 7.33162 12.6393 7.33162 10.799C7.33162 8.95877 8.82422 7.46633 10.6643 7.46633C12.5046 7.46633 13.997 8.95877 13.997 10.799C13.997 12.6393 12.5046 14.1318 10.6643 14.1318Z" fill="#AFB1B8"/>
<path d="M17.2047 5.45821C17.2047 6.12058 16.6676 6.65764 16.0051 6.65764C15.3427 6.65764 14.8057 6.12058 14.8057 5.45821C14.8057 4.7957 15.3427 4.25879 16.0051 4.25879C16.6676 4.25879 17.2047 4.7957 17.2047 5.45821Z" fill="#AFB1B8"/>
</g>
<defs>
<clipPath id="clip0_1_692">
<rect width="20" height="20" fill="white" transform="translate(0.627197 0.797119)"/>
</clipPath>
</defs>
</svg>
