<svg width="21" height="21" viewBox="0 0 21 21" fill="none" xmlns="http://www.w3.org/2000/svg">
<g clip-path="url(#clip0_1_676)">
<path d="M20.6222 20.7972V20.7963H20.6272V13.4613C20.6272 9.87299 19.8547 7.10883 15.6597 7.10883C13.643 7.10883 12.2897 8.21549 11.7372 9.26466H11.6789V7.44383H7.70135V20.7963H11.843V14.1847C11.843 12.4438 12.173 10.7605 14.3289 10.7605C16.453 10.7605 16.4847 12.7472 16.4847 14.2963V20.7972H20.6222Z" fill="#AFB1B8"/>
<path d="M0.957214 7.44458H5.10388V20.7971H0.957214V7.44458Z" fill="#AFB1B8"/>
<path d="M3.02886 0.797119C1.70303 0.797119 0.627197 1.87295 0.627197 3.19879C0.627197 4.52462 1.70303 5.62295 3.02886 5.62295C4.3547 5.62295 5.43053 4.52462 5.43053 3.19879C5.4297 1.87295 4.35386 0.797119 3.02886 0.797119V0.797119Z" fill="#AFB1B8"/>
</g>
<defs>
<clipPath id="clip0_1_676">
<rect width="20" height="20" fill="white" transform="translate(0.627197 0.797119)"/>
</clipPath>
</defs>
</svg>
