<svg xmlns="http://www.w3.org/2000/svg" aria-hidden="true" style="position:absolute;width:0;height:0;overflow:hidden"><defs><symbol id="icon-logo" viewBox="0 0 232 32"><path fill="#2196f3" d="M13.27.947h5.283l3.328 9.776L25.209.947h5.325L25.5 14.384l3.744 9.443L37.606.864h6.24L31.824 30.4h-4.826l-5.117-12.397L16.764 30.4h-4.826L-.001.864h6.157l8.403 22.963 3.661-9.443L13.27.947zm41.737 29.869c-1.747 0-3.328-.291-4.742-.874-1.414-.61-2.621-1.428-3.619-2.454s-1.775-2.219-2.33-3.578a11.746 11.746 0 0 1-.79-4.285c0-1.553.264-3.009.79-4.368a10.45 10.45 0 0 1 2.288-3.619c.998-1.054 2.205-1.886 3.619-2.496 1.442-.61 3.051-.915 4.826-.915s3.356.305 4.742.915c1.414.61 2.607 1.428 3.578 2.454a10.033 10.033 0 0 1 2.246 3.578c.527 1.359.79 2.773.79 4.243 0 .36-.014.707-.042 1.04 0 .333-.028.61-.083.832H49.432c.083.86.291 1.622.624 2.288s.763 1.234 1.29 1.706 1.123.832 1.789 1.082 1.359.374 2.08.374a6.452 6.452 0 0 0 3.12-.79c.998-.555 1.678-1.276 2.038-2.163l4.784 1.331c-.804 1.664-2.094 3.037-3.869 4.118-1.747 1.054-3.841 1.581-6.282 1.581zm5.657-13.146c-.139-1.636-.749-2.94-1.83-3.91-1.054-.998-2.344-1.498-3.869-1.498a5.47 5.47 0 0 0-2.122.416c-.638.25-1.206.61-1.706 1.082s-.915 1.04-1.248 1.706a6.297 6.297 0 0 0-.541 2.205h11.315zm22.782 13.146c-1.664 0-3.148-.374-4.451-1.123s-2.33-1.775-3.078-3.078v3.786H71.05V.033h5.574V12.43c.776-1.331 1.789-2.357 3.037-3.078 1.276-.749 2.759-1.123 4.451-1.123 1.414 0 2.704.305 3.869.915s2.163 1.428 2.995 2.454c.86 1.026 1.511 2.233 1.955 3.619.471 1.387.707 2.843.707 4.368 0 1.581-.264 3.051-.79 4.41a11.011 11.011 0 0 1-2.122 3.578c-.915.998-1.997 1.789-3.245 2.371s-2.593.874-4.035.874zm-1.539-4.742c.887 0 1.706-.166 2.454-.499.749-.36 1.387-.832 1.914-1.414s.929-1.262 1.206-2.038c.305-.776.458-1.608.458-2.496s-.139-1.733-.416-2.538a6.425 6.425 0 0 0-1.206-2.122c-.499-.61-1.096-1.095-1.789-1.456s-1.456-.541-2.288-.541c-1.248 0-2.371.416-3.37 1.248a8.044 8.044 0 0 0-2.246 2.995v5.2c.194.555.471 1.054.832 1.498.388.444.818.832 1.29 1.165.471.305.984.555 1.539.749.555.166 1.095.25 1.622.25z" style="fill:var(--color1, #2196f3)"/><path d="M116.8 8.602c-.194-.194-.555-.458-1.082-.79-.499-.333-1.123-.652-1.872-.957-.721-.333-1.512-.61-2.371-.832s-1.733-.333-2.621-.333c-1.581 0-2.76.291-3.536.874s-1.165 1.401-1.165 2.454c0 .61.139 1.123.416 1.539.305.388.735.735 1.29 1.04s1.248.582 2.08.832c.86.25 1.844.513 2.954.79 1.442.388 2.746.804 3.91 1.248 1.192.444 2.191.998 2.995 1.664a6.73 6.73 0 0 1 1.914 2.413c.444.915.666 2.052.666 3.411 0 1.581-.305 2.94-.915 4.077a7.312 7.312 0 0 1-2.413 2.704c-.998.693-2.163 1.206-3.494 1.539a18.027 18.027 0 0 1-4.118.458c-2.219 0-4.41-.333-6.573-.998s-4.105-1.608-5.824-2.829l2.538-4.95c.25.25.693.582 1.331.998.666.388 1.442.79 2.33 1.206.887.388 1.872.721 2.954.998s2.191.416 3.328.416c3.162 0 4.742-1.012 4.742-3.037 0-.638-.18-1.179-.541-1.622s-.874-.832-1.539-1.165-1.47-.638-2.413-.915c-.943-.277-1.997-.582-3.162-.915-1.414-.388-2.649-.804-3.702-1.248-1.026-.472-1.886-1.012-2.579-1.622a6.604 6.604 0 0 1-1.581-2.163c-.333-.832-.499-1.817-.499-2.954 0-1.498.277-2.829.832-3.994s1.317-2.135 2.288-2.912c.998-.777 2.149-1.359 3.453-1.747 1.303-.416 2.704-.624 4.202-.624 2.08 0 3.994.333 5.741.998 1.747.638 3.272 1.401 4.576 2.288l-2.538 4.659zm21.442 20.675c-.749.333-1.664.666-2.746.998s-2.219.499-3.411.499a8.145 8.145 0 0 1-2.205-.291 5.206 5.206 0 0 1-1.789-.915 4.95 4.95 0 0 1-1.206-1.664c-.305-.693-.458-1.525-.458-2.496V12.886h-2.87V8.601h2.87V1.529h5.574v7.072h4.576v4.285h-4.576v10.65c0 .776.194 1.331.582 1.664.416.305.915.458 1.498.458s1.151-.097 1.706-.291c.555-.194.998-.36 1.331-.499l1.123 4.41zm10.807 1.539c-2.246 0-3.952-.721-5.117-2.163s-1.747-3.578-1.747-6.406V8.602h5.574V21.04c0 3.356 1.206 5.034 3.619 5.034 1.082 0 2.122-.319 3.12-.957 1.026-.666 1.858-1.664 2.496-2.995V8.602h5.575v15.392c0 .582.096.998.291 1.248.221.25.568.388 1.04.416V30.4a11.715 11.715 0 0 1-2.412.25c-.998 0-1.817-.222-2.455-.666-.61-.472-.971-1.109-1.082-1.914l-.125-1.747c-.971 1.498-2.219 2.621-3.744 3.37s-3.203 1.123-5.034 1.123zm29.335 0c-1.498 0-2.885-.291-4.16-.874s-2.371-1.387-3.286-2.413a11.627 11.627 0 0 1-2.163-3.578c-.499-1.387-.749-2.87-.749-4.451s.235-3.051.707-4.41c.499-1.359 1.179-2.551 2.038-3.578s1.886-1.83 3.078-2.413c1.192-.582 2.496-.874 3.91-.874 1.608 0 3.051.388 4.326 1.165 1.304.777 2.315 1.789 3.037 3.037V.03h5.574v23.962c0 .582.098.998.291 1.248s.526.388.998.416v4.742c-.971.194-1.762.291-2.371.291-.998 0-1.816-.25-2.454-.749s-.998-1.151-1.082-1.955l-.125-1.373c-.805 1.387-1.899 2.44-3.286 3.162a9.306 9.306 0 0 1-4.285 1.04zm1.456-4.742c.526 0 1.067-.083 1.622-.25a6.238 6.238 0 0 0 2.787-1.955c.389-.444.68-.929.874-1.456v-5.2a5.537 5.537 0 0 0-.957-1.664 5.684 5.684 0 0 0-1.373-1.331 6.271 6.271 0 0 0-1.622-.915 4.449 4.449 0 0 0-1.664-.333c-.832 0-1.608.18-2.33.541a5.45 5.45 0 0 0-1.789 1.498c-.499.61-.888 1.317-1.165 2.122s-.416 1.636-.416 2.496c0 .915.152 1.761.458 2.538s.722 1.456 1.248 2.038a5.732 5.732 0 0 0 1.872 1.373 5.969 5.969 0 0 0 2.454.499zm17.578 4.326V8.602h5.574V30.4h-5.574zm0-24.835V.032h5.574v5.533h-5.574zm21.918 25.251c-1.776 0-3.37-.305-4.784-.915s-2.621-1.428-3.619-2.454a11.322 11.322 0 0 1-2.246-3.619 11.725 11.725 0 0 1-.79-4.285c0-1.525.262-2.968.79-4.326a10.853 10.853 0 0 1 2.246-3.578c.998-1.054 2.205-1.886 3.619-2.496s3.008-.915 4.784-.915c1.774 0 3.355.305 4.742.915 1.414.61 2.606 1.442 3.578 2.496a10.557 10.557 0 0 1 2.288 3.578 11.88 11.88 0 0 1 .79 4.326c0 1.498-.264 2.926-.79 4.285a11.392 11.392 0 0 1-2.246 3.619c-.971 1.026-2.163 1.844-3.578 2.454s-3.01.915-4.784.915zm-5.699-11.274c0 .971.138 1.858.416 2.662a7.058 7.058 0 0 0 1.206 2.038 5.872 5.872 0 0 0 1.83 1.373 5.515 5.515 0 0 0 2.246.458c.803 0 1.552-.152 2.246-.458a5.417 5.417 0 0 0 1.789-1.373 5.971 5.971 0 0 0 1.206-2.08c.304-.804.458-1.692.458-2.662 0-.943-.154-1.816-.458-2.621a5.971 5.971 0 0 0-1.206-2.08 4.966 4.966 0 0 0-1.789-1.331 5.125 5.125 0 0 0-2.246-.499c-.805 0-1.554.166-2.246.499a5.856 5.856 0 0 0-1.83 1.373 6.927 6.927 0 0 0-1.206 2.08 7.972 7.972 0 0 0-.416 2.621z" style="fill:var(--color2, #000)"/></symbol><symbol id="icon-astronaut" viewBox="0 0 32 32"><path fill="#2196f3" d="M31.974 4.524a.534.534 0 0 0-.43-.363l-1.91-.278-.855-1.731c-.179-.365-.777-.365-.956 0l-.855 1.731-1.91.278a.535.535 0 0 0-.296.91l1.383 1.348-.326 1.903c-.034.2.048.402.212.522a.53.53 0 0 0 .562.04l1.709-.899 1.709.899a.536.536 0 0 0 .775-.563l-.326-1.903 1.383-1.348a.536.536 0 0 0 .135-.547zm-2.463 1.327a.534.534 0 0 0-.153.472l.191 1.114-1-.526a.533.533 0 0 0-.498 0l-1.001.526.191-1.114a.534.534 0 0 0-.153-.472l-.81-.789 1.119-.163a.532.532 0 0 0 .402-.292l.5-1.013.5 1.013a.535.535 0 0 0 .402.292l1.119.163-.809.789zM26.134 20.522h-1.067v1.067h1.067v-1.067zM26.134 22.656h-1.067v1.067h1.067v-1.067zM27.2 21.589h-1.067v1.067H27.2v-1.067zM25.067 21.589H24v1.067h1.067v-1.067zM22.4 26.389h-1.067v1.067H22.4v-1.067zM22.4 28.522h-1.067v1.067H22.4v-1.067zM23.467 27.456H22.4v1.067h1.067v-1.067zM21.333 27.456h-1.067v1.067h1.067v-1.067zM16 24.256h-1.067v1.067H16v-1.067zM16 26.389h-1.067v1.067H16v-1.067zM17.067 25.322H16v1.067h1.067v-1.067zM14.933 25.322h-1.067v1.067h1.067v-1.067zM5.867 6.122H4.8v1.067h1.067V6.122zM5.867 8.255H4.8v1.067h1.067V8.255z" style="fill:var(--color1, #2196f3)"/><path fill="#2196f3" d="M6.933 7.189H5.866v1.067h1.067V7.189zM4.8 7.189H3.733v1.067H4.8V7.189z" style="fill:var(--color1, #2196f3)"/><path fill="#212121" d="M24.715 14.159a1.775 1.775 0 0 0-1.188-.705 1.778 1.778 0 0 0-1.34.352l-1.252.96-1.898 1.417-1.358-.541c2.421-1.086 4.114-3.508 4.114-6.32 0-3.823-3.123-6.933-6.961-6.933s-6.961 3.11-6.961 6.933a6.86 6.86 0 0 0 1.12 3.758l-2.764-.024h-.005c-.009 0-.015.004-.023.005a.515.515 0 0 0-.155.031l-.038.013c-.006.003-.013.003-.019.006l-3.233 1.596-.001.001-1.893.911a.397.397 0 0 0-.063.035 1.779 1.779 0 0 0-.598 2.295c.22.429.595.745 1.056.889a1.776 1.776 0 0 0 1.378-.128l1.388-.738 2.264-1.169 1.357-.008L2.2 22.211l-.002.001-1.339 1.333c-.316.315-.49.732-.49 1.178s.174.863.49 1.179c.325.323.752.485 1.179.485s.854-.162 1.18-.485l1.314-1.309 1.741-1.3.901.897-1.762 1.754-.002.001-1.339 1.333c-.316.315-.49.732-.49 1.178s.174.863.49 1.179c.325.323.753.485 1.18.485s.855-.162 1.18-.485l3.482-3.467.001-.002 1.01-1-.004-.004c.006-.006.015-.009.022-.015l5.166-5.658 3.471.494a.52.52 0 0 0 .262-.033c.018-.006.033-.015.05-.023.019-.01.039-.015.058-.027l3.213-2.133c.012-.008.018-.021.029-.029.013-.01.029-.014.041-.026l1.271-1.191c.662-.62.753-1.635.212-2.362zM2.13 17.77a.714.714 0 0 1-.558.052.717.717 0 0 1-.213-1.26l1.314-.632.449 1.312-.992.528zm3.498-1.828-1.548.8-.439-1.283 2.027-1.001-.04 1.484zm15.099-6.62a5.79 5.79 0 0 1-.599 2.559l-4.181-1.899a1.863 1.863 0 0 0-.788-1.388l1.464-4.86c2.378.756 4.105 2.974 4.105 5.588zm-11.789 0c0-3.235 2.644-5.867 5.894-5.867.253 0 .5.021.745.052l-1.432 4.754c-.019-.001-.037-.006-.057-.006-1.033 0-1.873.837-1.873 1.867s.84 1.867 1.873 1.867c.694 0 1.294-.383 1.618-.945l3.862 1.755a5.894 5.894 0 0 1-4.737 2.39c-3.25 0-5.894-2.632-5.894-5.867zm5.956.8c0 .441-.362.8-.806.8s-.806-.359-.806-.8c0-.441.362-.8.806-.8s.806.359.806.8zM2.465 25.146a.608.608 0 0 1-.854.001.592.592 0 0 1 0-.844l.962-.958.851.848-.959.955zm3.214 3.734a.608.608 0 0 1-.855.001.592.592 0 0 1 0-.844l.963-.959.852.848-.96.955zm3.481-3.469-.002.001-1.765 1.76-.852-.848 1.763-1.755.002-.001c.04-.04.065-.088.09-.135.007-.014.02-.026.026-.04.017-.041.019-.085.026-.129.003-.025.014-.047.014-.073 0-.036-.013-.07-.02-.106-.006-.032-.006-.065-.019-.095a.55.55 0 0 0-.091-.138c-.01-.012-.014-.027-.025-.038h-.001l-.001-.002-1.607-1.6c-.017-.017-.039-.024-.058-.038a.507.507 0 0 0-.087-.058.515.515 0 0 0-.093-.033.507.507 0 0 0-.103-.02.5.5 0 0 0-.095.005.53.53 0 0 0-.104.02.477.477 0 0 0-.094.045c-.02.011-.042.015-.061.029L4.23 23.486l-.901-.897 2.399-2.386 4.361 4.289-.928.919zm6.819-7.017c-.015-.002-.03.004-.045.003a.556.556 0 0 0-.3.075.492.492 0 0 0-.083.061c-.013.011-.028.017-.04.029l-4.698 5.146-4.328-4.257 2.833-2.818a.534.534 0 0 0-.379-.911v-.001l-2.219.013.028-1.607 3.104.027a6.947 6.947 0 0 0 4.981 2.101c.437 0 .864-.045 1.279-.123.04.032.079.065.13.085l2.41.96.331 1.644-3.003-.427zm4.041.178-.313-1.558 1.446-1.08.947 1.257-2.08 1.381zm3.754-2.831-.838.785-.931-1.236.831-.637a.735.735 0 0 1 .543-.143.718.718 0 0 1 .48.284.713.713 0 0 1-.085.947z" style="fill:var(--color3, #212121)"/><path fill="#212121" d="m13.602 18.544-2.143-2.133a.534.534 0 0 0-.753 0l-2.142 2.133a.537.537 0 0 0 0 .756l2.142 2.133a.536.536 0 0 0 .753 0l2.143-2.133a.535.535 0 0 0 0-.756zm-2.519 1.759-1.387-1.381 1.387-1.381 1.387 1.381-1.387 1.381zM17.164 5.071l-.258 1.036c.071.018 1.738.452 1.738 2.149h1.067c0-2.017-1.666-2.965-2.547-3.185zM19.711 9.322h-1.067v1.067h1.067V9.322z" style="fill:var(--color3, #212121)"/></symbol><symbol id="icon-client1" viewBox="0 0 27 32"><path d="m4.007.635 4.672 4.423-8.672-.005v21.458h22.667v-8.204l4.667 4.418V.636H4.008zm18.461 17.152L9.221 5.247h13.247v12.54zm-4.113 5.585H3.593V8.94h1.043v13.454h13.719v.977zM7.079 29.368l-.545 1.123-.545-1.123h-.457l.796 1.497v.872h.413v-.872l.794-1.497h-.456zm.685 2.37.192-.552h.918l.194.552h.43l-.897-2.37h-.369l-.895 2.37h.428zm.651-1.867.343.983h-.687l.343-.983zm2.172.926a.537.537 0 0 0-.09.301c0 .2.07.362.21.487.141.124.329.186.563.186s.436-.063.605-.19l.133.158h.459l-.348-.412c.137-.187.205-.426.205-.718h-.343a.95.95 0 0 1-.099.435l-.457-.54.161-.117a.894.894 0 0 0 .246-.247.524.524 0 0 0 .075-.273.487.487 0 0 0-.166-.376.598.598 0 0 0-.423-.153.629.629 0 0 0-.456.163.576.576 0 0 0-.169.439.58.58 0 0 0 .054.236c.037.081.101.18.194.296-.176.126-.294.235-.353.327zm1.069.524a.603.603 0 0 1-.374.133c-.118 0-.213-.034-.283-.103s-.106-.157-.106-.267c0-.127.065-.24.195-.339l.05-.036.518.61zm-.425-1.05c-.112-.138-.168-.252-.168-.343 0-.079.023-.145.068-.197s.107-.078.184-.078c.072 0 .131.022.177.067.047.043.07.096.07.158 0 .093-.034.17-.101.23l-.05.041-.181.124zm3.858 1.288c.163-.142.256-.34.28-.592h-.41c-.022.169-.073.29-.155.363s-.203.109-.365.109a.459.459 0 0 1-.404-.202c-.091-.135-.137-.33-.137-.586v-.21c.002-.253.051-.444.146-.575a.483.483 0 0 1 .413-.197c.154 0 .271.038.35.114.08.075.13.197.15.368h.41c-.026-.259-.119-.46-.278-.602s-.37-.213-.632-.213a.955.955 0 0 0-.514.138c-.148.092-.261.224-.34.394s-.119.367-.119.591v.221c.003.218.044.41.122.575s.189.292.332.383a.932.932 0 0 0 .5.133c.27 0 .487-.071.649-.212zm2.42-.332c.08-.176.12-.38.12-.612v-.132a1.423 1.423 0 0 0-.124-.607.897.897 0 0 0-.347-.4c-.149-.093-.32-.14-.513-.14s-.365.047-.514.142a.924.924 0 0 0-.347.405 1.456 1.456 0 0 0-.122.612v.133c.001.227.042.427.124.601a.934.934 0 0 0 .348.402.96.96 0 0 0 .514.14.947.947 0 0 0 .514-.14.908.908 0 0 0 .345-.404zm-.441-1.34c.1.14.15.341.15.604v.124c0 .267-.049.47-.148.609a.483.483 0 0 1-.42.208.492.492 0 0 1-.423-.213c-.101-.142-.151-.343-.151-.604v-.137c.002-.255.053-.452.153-.591.101-.14.24-.21.418-.21.182 0 .323.07.422.21z"/></symbol><symbol id="icon-client2" viewBox="0 0 24 32"><path d="M10.339 2.347h-.082c-.127-.008-.254-.011-.38-.014h-.275c-.24 0-.484.006-.727.018a.505.505 0 0 0-.055 0 17.08 17.08 0 0 0-6.349 1.62l-.261.126v13.368l.611-.207c.536-.184 1.107-.35 1.698-.504a20.731 20.731 0 0 1 4.888-.649v1.756c-.218.002-.431.008-.643.018h-.05c-1.269.07-2.528.263-3.76.577a19.11 19.11 0 0 0-4.48 1.746V3.057a17.931 17.931 0 0 1 4.7-1.911A17.94 17.94 0 0 1 9.603.575h.258c.309.008.609.021.892.043.745.052 1.483.17 2.207.352v1.729a13.54 13.54 0 0 0-2.182-.326 5.148 5.148 0 0 0-.437-.025zm3.042 1.767c.383.029.78.043 1.182.043a19.006 19.006 0 0 0 4.657-.597 19.187 19.187 0 0 0 4.478-1.747v16.84c-1.47.856-3.053 1.5-4.701 1.912a18.089 18.089 0 0 1-4.429.57 13.539 13.539 0 0 1-3.36-.396V3.79a13.76 13.76 0 0 0 2.174.325zm8.57.131-.611.206c-.562.189-1.129.358-1.698.508a20.693 20.693 0 0 1-5.075.651c-.399 0-.765-.011-1.12-.034l-.487-.032v13.752l.418.037c.388.034.788.051 1.191.051a16.284 16.284 0 0 0 3.997-.517 16.81 16.81 0 0 0 3.123-1.122l.261-.126V4.246zM1.659 26.062a.9.9 0 0 0-.68-.275 1.002 1.002 0 0 0-.393.074.874.874 0 0 0-.502.508.984.984 0 0 0-.07.379v2.291c-.005.161.025.322.09.47a.922.922 0 0 0 .229.307.804.804 0 0 0 .315.163c.111.031.226.047.342.048a.86.86 0 0 0 .37-.08.951.951 0 0 0 .505-.519.919.919 0 0 0 .073-.365v-.256h-.599v.204a.525.525 0 0 1-.035.204.368.368 0 0 1-.087.129.41.41 0 0 1-.25.087.307.307 0 0 1-.281-.122.543.543 0 0 1-.079-.307v-2.136a.723.723 0 0 1 .073-.342.303.303 0 0 1 .293-.138.317.317 0 0 1 .267.129.485.485 0 0 1 .099.307v.198h.593v-.233a1.1 1.1 0 0 0-.073-.401.928.928 0 0 0-.2-.322zM5.216 26.036a1.07 1.07 0 0 0-.681-.252 1.058 1.058 0 0 0-.357.064.947.947 0 0 0-.548.508c-.06.14-.09.291-.087.444v2.197c-.004.155.026.308.087.45a.886.886 0 0 0 .232.307.928.928 0 0 0 .316.193 1.038 1.038 0 0 0 .714 0c.119-.043.229-.109.324-.193a.938.938 0 0 0 .226-.307c.061-.142.091-.295.087-.45V26.8a1.076 1.076 0 0 0-.087-.444.99.99 0 0 0-.226-.321zm-.28 2.961a.387.387 0 0 1-.119.317.441.441 0 0 1-.564 0 .389.389 0 0 1-.119-.317V26.8a.387.387 0 0 1 .119-.317.441.441 0 0 1 .564 0 .389.389 0 0 1 .119.317v2.197zM9.888 29.979V25.82h-.576l-.756 2.202h-.011l-.762-2.202h-.57v4.159h.594v-2.53h.011l.582 1.789h.296l.586-1.789h.011v2.53h.594zM13.264 26.111a.813.813 0 0 0-.336-.227 1.342 1.342 0 0 0-.431-.065h-.883v4.159h.593v-1.624h.305a1.09 1.09 0 0 0 .535-.114.863.863 0 0 0 .325-.318.989.989 0 0 0 .136-.362 3 3 0 0 0 .032-.473c.006-.2-.014-.399-.058-.594a.896.896 0 0 0-.218-.382zm-.306 1.268a.523.523 0 0 1-.055.216.333.333 0 0 1-.153.146.613.613 0 0 1-.28.052h-.27v-1.414h.305a.558.558 0 0 1 .267.052c.061.035.11.089.139.154.032.073.05.152.052.232v.276c0 .096.006.197 0 .286h-.006zM16.071 25.819h-.486l-.916 4.159h.593l.174-.894h.808l.174.894h.593l-.939-4.159zm-.547 2.699.292-1.508h.011l.29 1.508h-.593zM19.9 28.325h-.011l-.895-2.506h-.57v4.159h.593v-2.501h.012l.906 2.501h.557v-4.159h-.593v2.506zM23.521 25.819l-.477 1.654h-.012l-.477-1.654h-.628l.814 2.401v1.758h.593V28.22l.814-2.401h-.628zM.006 31.153h.286v.801h.194v-.801H.77v-.164H.006v.164zM2.407 30.989l-.374.966h.206l.079-.22h.385l.082.22h.211l-.383-.966h-.206zm-.031.583.131-.358.131.358h-.263zM4.781 31.598h.223v.124a.368.368 0 0 1-.229.081.242.242 0 0 1-.204-.092.409.409 0 0 1-.072-.252c0-.215.093-.322.278-.322a.206.206 0 0 1 .218.153l.191-.037c-.041-.189-.177-.284-.409-.284a.49.49 0 0 0-.338.124.466.466 0 0 0-.139.371.524.524 0 0 0 .124.362.46.46 0 0 0 .367.141.579.579 0 0 0 .409-.154v-.381h-.418v.163zM7.204 30.989h-.196v.966h.677v-.164h-.481v-.801zM9.254 30.989h-.195v.966h.195v-.966zM11.258 31.634l-.396-.645h-.189v.966h.182v-.631l.388.631h.194v-.966h-.179v.645zM13.07 31.529h.481v-.164h-.481v-.212h.518v-.164h-.713v.966h.733v-.164h-.538v-.261zM17.462 31.369h-.38v-.381h-.194v.966h.194v-.422h.38v.422h.194v-.966h-.194v.381zM19.285 31.529h.483v-.164h-.483v-.212h.519v-.164h-.713v.966h.732v-.164h-.538v-.261zM21.756 31.529c.168-.026.254-.115.254-.269.005-.041-.001-.083-.018-.12s-.043-.07-.077-.094a.542.542 0 0 0-.283-.057h-.409v.966h.194v-.404h.038a.265.265 0 0 1 .121.021.204.204 0 0 1 .069.071l.211.307h.232l-.118-.189a.67.67 0 0 0-.214-.232zm-.196-.133h-.144v-.243h.153a.504.504 0 0 1 .197.023c.014.012.025.028.033.045s.011.036.01.055c-.001.019-.006.037-.015.054s-.021.031-.037.042a.55.55 0 0 1-.197.023zM23.619 31.529h.481v-.164h-.481v-.212h.519v-.164h-.715v.966h.733v-.164h-.538v-.261z"/></symbol><symbol id="icon-client3" viewBox="0 0 34 32"><path d="M5.65 31.279a.095.095 0 0 1 .064.025l.166.159a1.373 1.373 0 0 1-.467.302c-.21.076-.435.113-.663.108a1.77 1.77 0 0 1-.623-.101 1.37 1.37 0 0 1-.469-.285 1.268 1.268 0 0 1-.303-.44 1.472 1.472 0 0 1-.106-.565 1.31 1.31 0 0 1 .436-1.007c.142-.124.312-.222.499-.287.205-.069.422-.103.642-.101.204-.004.407.027.596.092.165.062.316.148.447.254l-.139.17a.173.173 0 0 1-.035.031.097.097 0 0 1-.056.013.136.136 0 0 1-.06-.018l-.075-.045-.104-.058a1.3 1.3 0 0 0-.139-.056 1.46 1.46 0 0 0-.436-.063 1.328 1.328 0 0 0-.461.076c-.136.048-.26.121-.361.213a.987.987 0 0 0-.235.339 1.155 1.155 0 0 0-.085.448 1.17 1.17 0 0 0 .085.455.994.994 0 0 0 .231.338.938.938 0 0 0 .345.209c.136.049.281.073.428.072.085.001.17-.004.253-.014a1.01 1.01 0 0 0 .548-.233.127.127 0 0 1 .079-.029zM10.449 30.481c.003.192-.035.382-.112.561-.068.163-.174.311-.313.436s-.306.222-.491.286a2.02 2.02 0 0 1-1.263 0 1.454 1.454 0 0 1-.488-.287 1.297 1.297 0 0 1-.316-.44 1.462 1.462 0 0 1 0-1.125c.071-.164.178-.314.316-.442.139-.12.305-.214.488-.276a1.992 1.992 0 0 1 1.263 0c.185.065.352.163.49.287.137.125.243.273.314.435.077.181.115.372.112.565zm-.436 0a1.186 1.186 0 0 0-.079-.451.933.933 0 0 0-.573-.551 1.456 1.456 0 0 0-.918 0 .985.985 0 0 0-.351.213.897.897 0 0 0-.224.338 1.319 1.319 0 0 0 0 .902.926.926 0 0 0 .575.549 1.5 1.5 0 0 0 .918 0 .98.98 0 0 0 .351-.211.933.933 0 0 0 .222-.338c.056-.145.082-.298.079-.451zM13.723 30.954l.044.101c.017-.036.031-.069.048-.101a.95.95 0 0 1 .054-.099l1.062-1.677c.021-.029.039-.047.06-.052a.283.283 0 0 1 .087-.009h.314v2.727h-.372v-2.09a.737.737 0 0 1 0-.094l-1.068 1.7c-.014.026-.035.047-.063.062s-.059.023-.091.023h-.06c-.032 0-.064-.007-.091-.022s-.049-.037-.062-.062l-1.099-1.711v2.189h-.359v-2.722h.314a.28.28 0 0 1 .087.009c.026.011.046.03.058.052l1.084 1.678a.662.662 0 0 1 .054.097zM17.718 30.819v1.021h-.415v-2.723h.926a1.95 1.95 0 0 1 .517.06c.134.033.259.091.366.17a.713.713 0 0 1 .208.267.825.825 0 0 1 .071.348.758.758 0 0 1-.301.62 1.062 1.062 0 0 1-.368.18 1.757 1.757 0 0 1-.501.063l-.503-.007zm0-.293h.503c.109.001.218-.013.322-.042a.71.71 0 0 0 .233-.117.526.526 0 0 0 .191-.409c.005-.076-.009-.151-.042-.222s-.082-.134-.145-.186a.889.889 0 0 0-.559-.146h-.503v1.122zM23.301 31.844h-.328a.158.158 0 0 1-.091-.025.17.17 0 0 1-.054-.063l-.282-.659h-1.419l-.293.659a.152.152 0 0 1-.145.088h-.328l1.246-2.727h.432l1.263 2.727zm-2.056-1.013h1.172l-.494-1.11a1.746 1.746 0 0 1-.093-.256l-.048.143a1.404 1.404 0 0 1-.046.116l-.49 1.108zM25.096 29.129a.178.178 0 0 1 .062.049l1.818 2.056v-2.117h.372v2.727h-.208a.201.201 0 0 1-.085-.016.225.225 0 0 1-.067-.051l-1.816-2.054a.737.737 0 0 1 0 .094v2.027H24.8v-2.727h.22a.191.191 0 0 1 .075.013zM30.41 30.759v1.083h-.415v-1.083l-1.149-1.642h.372a.15.15 0 0 1 .089.023.23.23 0 0 1 .056.061l.719 1.059a1.064 1.064 0 0 1 .127.242l.054-.117a.912.912 0 0 1 .071-.125l.708-1.067a.295.295 0 0 1 .054-.058.14.14 0 0 1 .089-.027h.376l-1.151 1.65zM13.517 24.54c.181.02.364.036.548.05 2.803-1.089 5.174-2.872 6.817-5.126s2.485-4.878 2.421-7.546l-3.089-2.684c.628 2.84.334 5.775-.849 8.479s-3.208 5.067-5.849 6.827z"/><path d="m12.414 24.415.083.014c2.822-1.754 4.974-4.203 6.176-7.03s1.402-5.904.571-8.83l-4.4-3.823c1.78 3.142 2.496 6.659 2.066 10.141s-1.989 6.786-4.496 9.528zM27.335 15.07c-.747 2.931-2.563 5.574-5.177 7.537a16.41 16.41 0 0 1-2.46 1.534c2.128-.544 4.085-1.504 5.718-2.809s2.9-2.917 3.703-4.714l-1.784-1.549z"/><path d="m26.635 14.638-2.541-2.207c-.049 2.517-.872 4.976-2.385 7.123s-3.66 3.902-6.217 5.084h.012c.57 0 1.139-.03 1.705-.088 2.39-.848 4.502-2.196 6.147-3.926s2.771-3.785 3.278-5.985zM12.782 3.134 9.751.497c-2.709.91-5.04 2.509-6.686 4.588S.534 9.627.525 12.151c.01 2.789 1.09 5.495 3.07 7.69s4.745 3.754 7.859 4.43c2.78-2.942 4.407-6.579 4.646-10.38s-.924-7.569-3.319-10.757zM33.638 14.232c-.011-3.309-1.529-6.479-4.221-8.818s-6.342-3.658-10.15-3.668a16.134 16.134 0 0 0-5.145.832l18.557 16.123a10.94 10.94 0 0 0 .96-4.469z"/></symbol><symbol id="icon-client4" viewBox="0 0 65 32"><path d="M10.024 9.947h-.002c-1.827 0-3.308 1.316-3.308 2.94v.002c0 1.624 1.481 2.94 3.308 2.94h.002c1.827 0 3.308-1.316 3.308-2.94v-.002c0-1.624-1.481-2.94-3.308-2.94zM34.442 9.007c-.005-2.255-1.015-4.417-2.81-6.012S27.406.502 24.868.497c-2.538.004-4.972.902-6.767 2.497s-2.806 3.757-2.811 6.013v12.436s19.149-1.895 19.151-12.434v-.002zM.008 25.526c.005 1.569.708 3.073 1.956 4.183s2.94 1.735 4.706 1.74c1.765-.005 3.457-.63 4.705-1.739s1.952-2.613 1.957-4.182v-8.654S.008 18.194.008 25.525zm6.662 1.55c-.345 0-.682-.091-.969-.261s-.51-.413-.643-.696c-.132-.283-.167-.595-.099-.896s.233-.577.477-.794.555-.364.893-.424c.338-.06.689-.029 1.008.088s.591.316.783.571a1.404 1.404 0 0 1 .163 1.456c-.087.189-.216.36-.378.505-.162.145-.355.259-.567.338s-.439.119-.669.119v-.006zM18.85 24.3v3.25h-.67V24.3h.67zm1.294 1.389v.522h-1.478v-.522h1.478zM20.3 24.3v.525h-1.634V24.3H20.3zm3.058 1.549v.154c0 .247-.033.469-.1.665s-.161.364-.284.502a1.228 1.228 0 0 1-.438.315 1.392 1.392 0 0 1-.56.109c-.204 0-.391-.036-.56-.109a1.264 1.264 0 0 1-.438-.315 1.471 1.471 0 0 1-.288-.502 2.051 2.051 0 0 1-.1-.665v-.154c0-.248.034-.47.1-.665.067-.196.162-.364.284-.502.123-.138.269-.244.438-.317.17-.073.356-.109.56-.109.205 0 .392.037.56.109.17.073.316.179.438.317.123.138.219.306.286.502.068.195.103.417.103.665zm-.676.154v-.158c0-.173-.016-.324-.047-.455s-.077-.241-.138-.33a.601.601 0 0 0-.524-.27.636.636 0 0 0-.301.069.611.611 0 0 0-.221.201c-.059.089-.105.199-.136.33s-.047.283-.047.455v.158c0 .171.016.323.047.455.031.131.077.242.138.333.061.089.135.157.223.203s.188.069.301.069c.113 0 .214-.023.301-.069s.161-.114.221-.203c.059-.091.105-.202.136-.333.031-.132.047-.284.047-.455zm2.851.697a.425.425 0 0 0-.027-.156.295.295 0 0 0-.094-.13c-.046-.04-.111-.08-.194-.118s-.191-.079-.324-.121a4.161 4.161 0 0 1-.42-.161 1.688 1.688 0 0 1-.348-.208.938.938 0 0 1-.237-.279.763.763 0 0 1-.085-.368c0-.135.03-.258.089-.368a.853.853 0 0 1 .25-.286c.107-.08.234-.142.379-.185.147-.043.309-.065.484-.065.24 0 .449.043.627.129s.317.205.415.355c.1.15.15.322.15.516h-.665a.505.505 0 0 0-.06-.25.409.409 0 0 0-.179-.172.634.634 0 0 0-.299-.062.686.686 0 0 0-.29.054.386.386 0 0 0-.174.141.342.342 0 0 0-.058.196c0 .055.013.105.04.15.028.045.07.086.125.125s.123.075.203.109c.08.034.173.068.279.1.177.054.333.114.466.181.135.067.248.142.339.225a.828.828 0 0 1 .274.643c0 .141-.027.268-.083.379s-.135.206-.239.284c-.104.077-.228.136-.373.176s-.306.06-.484.06c-.161 0-.319-.021-.476-.062a1.449 1.449 0 0 1-.426-.194c-.126-.086-.228-.196-.304-.33s-.114-.292-.114-.475h.672c0 .101.016.187.047.257s.075.126.132.17a.577.577 0 0 0 .205.094c.08.019.168.029.263.029a.713.713 0 0 0 .286-.049.349.349 0 0 0 .223-.332zm2.578-2.4v3.25h-.667V24.3h.667zm1 0v.525h-2.652V24.3h2.652zm2.562 2.728v.522h-1.73v-.522h1.73zM30.162 24.3v3.25h-.67V24.3h.67zm1.286 1.324v.509h-1.504v-.509h1.504zm.223-1.324v.525h-1.728V24.3h1.728zm.393 0h1.212c.249 0 .462.037.641.112.18.074.318.185.415.33s.145.325.145.538c0 .174-.03.324-.089.449a.842.842 0 0 1-.248.31c-.106.082-.23.147-.373.197l-.212.112h-1.054l-.004-.522h.783c.118 0 .215-.021.292-.062s.135-.1.174-.174a.538.538 0 0 0 .06-.259c0-.104-.019-.194-.058-.27s-.097-.134-.176-.174a.654.654 0 0 0-.297-.06h-.542v2.725h-.67v-3.25zm1.817 3.25-.741-1.449.708-.005.75 1.422v.031h-.717zm3.515-1.158h-.828v-.522h.828a.692.692 0 0 0 .313-.062c.08-.043.139-.103.176-.179s.056-.161.056-.257c0-.097-.019-.187-.056-.27s-.096-.15-.176-.201a.576.576 0 0 0-.313-.076H36.8v2.725h-.67V24.3h1.266c.254 0 .472.046.654.138.183.091.323.216.42.377s.145.344.145.551c0 .21-.048.391-.145.545s-.237.272-.42.355c-.182.083-.4.125-.654.125zm3.862.636v.522h-1.73v-.522h1.73zM39.747 24.3v3.25h-.67V24.3h.67zm1.286 1.324v.509h-1.504v-.509h1.504zm.223-1.324v.525h-1.728V24.3h1.728zm1.89 0v3.25h-.667V24.3h.667zm1 0v.525h-2.652V24.3h2.652zm2.563 2.728v.522h-1.73v-.522h1.73zM45.198 24.3v3.25h-.67V24.3h.67zm1.285 1.324v.509h-1.504v-.509h1.504zm.224-1.324v.525h-1.728V24.3h1.728zm.393 0h1.212c.249 0 .462.037.641.112.18.074.318.185.415.33s.145.325.145.538c0 .174-.03.324-.089.449a.842.842 0 0 1-.248.31c-.106.082-.23.147-.373.197l-.212.112h-1.054l-.005-.522h.784c.118 0 .215-.021.292-.062s.135-.1.174-.174a.538.538 0 0 0 .06-.259c0-.104-.019-.194-.058-.27s-.097-.134-.176-.174a.654.654 0 0 0-.297-.06h-.542v2.725h-.67v-3.25zm1.816 3.25-.741-1.449.708-.005.75 1.422v.031h-.717zm2.804-.85a.425.425 0 0 0-.027-.156.295.295 0 0 0-.094-.13c-.046-.04-.111-.08-.194-.118s-.191-.079-.324-.121a4.161 4.161 0 0 1-.42-.161 1.688 1.688 0 0 1-.348-.208.938.938 0 0 1-.237-.279.763.763 0 0 1-.085-.368c0-.135.03-.258.089-.368a.853.853 0 0 1 .25-.286c.107-.08.234-.142.379-.185.147-.043.309-.065.484-.065.24 0 .449.043.627.129s.317.205.415.355c.1.15.15.322.15.516h-.665a.505.505 0 0 0-.06-.25.409.409 0 0 0-.179-.172.634.634 0 0 0-.299-.062.686.686 0 0 0-.29.054.386.386 0 0 0-.174.141.342.342 0 0 0-.058.196c0 .055.013.105.04.15.028.045.07.086.125.125s.123.075.203.109c.08.034.173.068.279.1.177.054.333.114.467.181.135.067.248.142.339.225a.828.828 0 0 1 .274.643.793.793 0 0 1-.322.663c-.104.077-.228.136-.373.176s-.306.06-.484.06a1.86 1.86 0 0 1-.475-.062 1.449 1.449 0 0 1-.426-.194c-.126-.086-.228-.196-.304-.33s-.114-.292-.114-.475h.672c0 .101.016.187.047.257s.075.126.132.17a.577.577 0 0 0 .205.094c.08.019.168.029.263.029a.713.713 0 0 0 .286-.049.349.349 0 0 0 .223-.332z"/></symbol><symbol id="icon-client5" viewBox="0 0 43 32"><path d="M3.245 26.341a.98.98 0 0 1 .25.665c.008.158-.022.315-.089.46s-.169.275-.298.38a1.788 1.788 0 0 1-1.125.307H.006v-4.215h1.937c.382-.023.761.076 1.073.28.125.096.224.217.289.354s.095.286.086.435a.923.923 0 0 1-.225.645c-.15.168-.358.284-.589.33.262.044.499.172.668.36zm-2.318-.637h.828a.835.835 0 0 0 .526-.14c.062-.052.111-.116.141-.187s.043-.148.036-.225c.006-.076-.007-.153-.037-.224s-.078-.135-.138-.188a.858.858 0 0 0-.542-.142H.927v1.106zm1.435 1.617c.066-.053.119-.119.153-.193s.049-.155.043-.235c.005-.081-.01-.163-.045-.238s-.088-.142-.155-.195a.907.907 0 0 0-.562-.152H.928v1.159h.879a.938.938 0 0 0 .556-.146zM7.204 28.153l-1.077-1.647h-.405v1.647h-.927v-4.215h1.754c.442-.028.879.1 1.221.358.245.229.393.53.417.85s-.078.637-.287.894a1.46 1.46 0 0 1-.837.428l1.147 1.685H7.202zm-1.482-2.222h.758c.526 0 .789-.213.789-.638a.586.586 0 0 0-.193-.473.87.87 0 0 0-.596-.171h-.767l.009 1.283zM12.269 27.304h-1.847l-.326.848h-.972l1.696-4.168h1.05l1.689 4.168h-.972l-.319-.848zm-.247-.638-.675-1.779-.675 1.779h1.349zM18.609 28.153h-.92l-2.062-2.867v2.867h-.918v-4.215h.918l2.062 2.883v-2.883h.92v4.215zM23.859 27.144c-.19.318-.48.577-.832.743-.4.185-.845.276-1.293.266h-1.637v-4.215h1.637c.448-.011.892.078 1.293.259.352.163.642.419.832.735.189.343.288.722.288 1.106s-.099.763-.288 1.106zm-1.053-.101c.263-.28.407-.637.407-1.006s-.144-.726-.407-1.006a1.692 1.692 0 0 0-1.152-.358h-.639v2.729h.639a1.7 1.7 0 0 0 1.152-.358zM12.845.49s11.873 4.104 11.621 10.043v10.045s-11.864-4.106-11.617-10.045L12.844.49zM35.044 18.227c2.242-1.413 4.836-2.288 7.544-2.545v-3.145c-3.12 1.101-5.766 3.097-7.544 5.69z"/><path d="M33.696 19.174c1.835-3.384 5.017-5.995 8.891-7.296V2.817S25.678 8.663 26.036 17.121v14.302s.753-.262 1.939-.752c0-.457 0-.918.054-1.382.35-3.926 2.389-7.565 5.668-10.115z"/><path d="M32.088 24.487a13.62 13.62 0 0 1 .592-2.928c-2.042 2.203-3.278 4.936-3.536 7.815-.025.272-.038.544-.045.824a50.77 50.77 0 0 0 3.252-1.569 13.564 13.564 0 0 1-.263-4.141zM32.761 24.539a12.973 12.973 0 0 0 .209 3.75c4.62-2.531 9.811-6.442 9.611-11.168v-.412c-3.301.338-6.389 1.659-8.79 3.76a13.125 13.125 0 0 0-1.03 4.069z"/></symbol><symbol id="icon-client6" viewBox="0 0 67 32"><path d="M33.731 15.19a2.095 2.095 0 0 1-.43-1.414v-2.05c0-.629.143-1.106.428-1.433s.775-.489 1.469-.488c.652 0 1.115.139 1.389.417.299.355.444.789.411 1.226v.482h-1.167v-.488a2.476 2.476 0 0 0-.034-.478.467.467 0 0 0-.167-.284.681.681 0 0 0-.423-.111.711.711 0 0 0-.444.117.544.544 0 0 0-.193.313 2.398 2.398 0 0 0-.046.507v2.488c-.018.24.033.48.15.699.058.074.139.133.233.169s.198.05.301.039a.632.632 0 0 0 .413-.113.502.502 0 0 0 .174-.302c.027-.165.039-.332.036-.498v-.505h1.167v.461c.033.456-.109.909-.403 1.289-.268.305-.725.457-1.396.457s-1.179-.163-1.466-.501zM38.59 15.211c-.295-.319-.442-.784-.442-1.4v-2.157c0-.609.147-1.07.442-1.383s.788-.469 1.478-.467c.686 0 1.177.156 1.471.467.295.313.444.774.444 1.383v2.157c0 .609-.15 1.076-.449 1.397s-.788.482-1.466.482-1.181-.163-1.478-.48zm2.022-.517c.106-.2.154-.419.14-.638v-2.641a1.17 1.17 0 0 0-.138-.626c-.059-.075-.142-.135-.238-.172s-.203-.05-.308-.037c-.105-.013-.212 0-.308.037s-.18.096-.24.171a1.15 1.15 0 0 0-.14.626v2.653c-.015.219.033.439.14.638.068.067.152.121.246.158a.82.82 0 0 0 .6 0 .732.732 0 0 0 .246-.158v-.012zM43.387 9.868h1.256l.945 3.979.966-3.979h1.222l.123 5.743h-.904l-.097-3.992-.932 3.992h-.725l-.966-4.006-.089 4.006h-.913l.114-5.743zM49.309 9.868h1.957c1.127 0 1.691.544 1.691 1.631 0 1.041-.593 1.561-1.78 1.56h-.667v2.553h-1.208l.007-5.743zm1.671 2.454c.119.013.241.004.355-.028s.22-.084.309-.154a.933.933 0 0 0 .174-.649 1.801 1.801 0 0 0-.058-.521c-.017-.057-.047-.111-.089-.158s-.093-.086-.153-.116a1.262 1.262 0 0 0-.539-.092h-.469v1.716h.469zM54.698 9.868h1.297l1.331 5.743H56.2l-.263-1.324H54.78l-.271 1.324h-1.143l1.331-5.743zm1.109 3.753-.452-2.411-.452 2.411h.903zM58.402 9.868h.846l1.619 3.276V9.868h1.003v5.743h-.804l-1.628-3.42v3.42h-1.036l.002-5.743zM64.216 13.421 62.87 9.875h1.133l.821 2.277.771-2.277h1.109l-1.329 3.546v2.19h-1.16v-2.19zM35.596 18.122v.3h-.986v2.334h-.413v-2.334h-.99v-.3h2.389zM38.686 20.756h-.319a.139.139 0 0 1-.089-.025.133.133 0 0 1-.053-.06l-.285-.626h-1.367l-.285.626a.172.172 0 0 1-.044.071.152.152 0 0 1-.089.025h-.319l1.208-2.634h.42l1.222 2.624zm-2-.978h1.14l-.483-1.072a1.75 1.75 0 0 1-.089-.248c-.017.05-.031.098-.046.14l-.043.11-.478 1.07zM40.769 20.498c.076.003.151.003.227 0 .065-.006.13-.016.193-.031.059-.012.117-.029.174-.048.053-.019.106-.042.162-.065v-.592h-.483c-.012.001-.024-.001-.035-.005s-.021-.009-.03-.016a.062.062 0 0 1-.024-.048v-.202h.937V20.5a1.842 1.842 0 0 1-.51.215c-.099.025-.2.043-.302.054a3.775 3.775 0 0 1-.353.017 1.842 1.842 0 0 1-.609-.098 1.485 1.485 0 0 1-.483-.275 1.293 1.293 0 0 1-.312-.417 1.315 1.315 0 0 1-.111-.546 1.352 1.352 0 0 1 .109-.551c.069-.156.176-.298.312-.417.138-.119.302-.212.483-.273.207-.067.426-.1.647-.098.112 0 .225.008.336.023.098.014.194.036.288.067a1.4 1.4 0 0 1 .452.242l-.116.163c-.009.015-.023.027-.039.036s-.036.014-.055.014a.16.16 0 0 1-.075-.021 1.582 1.582 0 0 1-.118-.063 1.02 1.02 0 0 0-.162-.071 1.508 1.508 0 0 0-.529-.081 1.407 1.407 0 0 0-.466.073.923.923 0 0 0-.58.536 1.23 1.23 0 0 0 0 .878.938.938 0 0 0 .242.332c.099.09.219.162.353.209.154.046.316.063.478.052zM44.619 20.456h1.319v.3h-1.722v-2.634h.413l-.01 2.334zM47.311 20.756h-.413v-2.634h.413v2.634zM48.847 18.135a.189.189 0 0 1 .063.048l1.766 1.986a.737.737 0 0 1 0-.094v-1.963h.36v2.645h-.208a.19.19 0 0 1-.089-.015.23.23 0 0 1-.065-.05l-1.764-1.984v2.048h-.345v-2.634h.215c.023 0 .046.004.068.012zM54.077 18.122v.29h-1.464v.87h1.186v.279h-1.186v.899h1.464v.29h-1.889v-2.628h1.889zM10.789 1.855l18.343 4.497v15.757l-18.343-4.494V1.856zM9.612.511v17.867l20.694 5.074V5.587L9.612.511z"/><path d="M20.703 31.747.007 26.668V8.802l20.696 5.076v17.868z"/><path d="m9.955 1.652 18.104 4.44-7.699 6.649L2.254 8.299l7.702-6.647zM9.612.511.007 8.803l20.696 5.076 9.603-8.292L9.612.511zM21.868 30.742l8.438-7.287-8.438-2.071v9.358z"/></symbol><symbol id="icon-envelope" viewBox="0 0 43 32"><path d="M38.667 0H4C1.794 0 0 1.794 0 4v24c0 2.206 1.794 4 4 4h34.667c2.206 0 4-1.794 4-4V4c0-2.206-1.794-4-4-4zm0 2.667c.181 0 .353.038.511.103L21.334 18.236 3.49 2.77a1.32 1.32 0 0 1 .511-.103h34.667zm0 26.666H4A1.334 1.334 0 0 1 2.667 28V5.587L20.46 21.008a1.335 1.335 0 0 0 1.748 0L40.001 5.587V28c0 .736-.598 1.333-1.333 1.333z"/></symbol><symbol id="icon-facebook" viewBox="0 0 17 32"><path d="M13.65 6.275h2.782V1.429c-.48-.066-2.131-.215-4.053-.215-4.011 0-6.759 2.523-6.759 7.161v4.268H1.193v5.417H5.62v13.63h5.427V18.061h4.248l.674-5.417h-4.923V8.912c.001-1.566.423-2.637 2.604-2.637z"/></symbol><symbol id="icon-graph" viewBox="0 0 32 32"><path fill="#2196f3" d="M14.926 14.965h1.066v4.798h-1.066v-4.797zM19.19 17.097h1.066v2.665H19.19v-2.665zM10.661 18.696h1.066v1.066h-1.066v-1.066zM7.463 18.163h1.066v1.599H7.463v-1.599z" style="fill:var(--color1, #2196f3)"/><path fill="#212121" d="M1.599 28.291h25.587a1.6 1.6 0 0 0 1.599-1.599V24.56a1.6 1.6 0 0 0-1.599-1.599h-.533V9.668L29.681 6.8a1.608 1.608 0 1 0-.746-.763L26.654 8.2V6.97a1.6 1.6 0 0 0-1.599-1.599H3.733A1.6 1.6 0 0 0 2.134 6.97v15.992h-.533a1.6 1.6 0 0 0-1.599 1.599v2.132a1.6 1.6 0 0 0 1.599 1.599zM30.384 4.837a.533.533 0 1 1 0 1.067.533.533 0 0 1 0-1.067zM3.198 6.969c0-.294.239-.533.533-.533h21.322c.294 0 .533.239.533.533v2.239l-1.066 1.013V8.035a.533.533 0 0 0-.533-.533H4.797a.533.533 0 0 0-.533.533v13.326c0 .294.239.533.533.533h19.19a.533.533 0 0 0 .533-.533v-9.674l1.066-1.01v12.284H3.198V6.969zm4.798 6.93a1.598 1.598 0 1 0 1.107 2.749l1.853.93a.532.532 0 0 0 .636-.123l3.939-4.431 3.872 2.901a.533.533 0 0 0 .686-.039l3.365-3.188v8.131H5.33V8.569h18.124v2.66l-3.771 3.572-3.904-2.927a.533.533 0 0 0-.718.072l-3.993 4.493-1.493-.746c.011-.064.018-.129.02-.193a1.6 1.6 0 0 0-1.599-1.599zm.533 1.599a.533.533 0 1 1-1.067 0 .533.533 0 0 1 1.067 0zm3.198 8.529h5.331v.533a.533.533 0 0 1-.533.533h-4.264a.533.533 0 0 1-.533-.533v-.533zm-10.661.533c0-.294.239-.533.533-.533h9.062v.533a1.6 1.6 0 0 0 1.599 1.599h4.264a1.6 1.6 0 0 0 1.599-1.599v-.533h9.062c.294 0 .533.239.533.533v2.132a.533.533 0 0 1-.533.533H1.598a.533.533 0 0 1-.533-.533V24.56z" style="fill:var(--color3, #212121)"/></symbol><symbol id="icon-instagram" viewBox="0 0 32 32"><path d="M31.402 10.175c-.071-1.619-.333-2.733-.708-3.697a7.436 7.436 0 0 0-1.762-2.703 7.5 7.5 0 0 0-2.697-1.756c-.97-.375-2.078-.637-3.697-.708-1.632-.077-2.149-.095-6.287-.095s-4.656.018-6.281.089c-1.619.071-2.733.333-3.697.708A7.436 7.436 0 0 0 3.57 3.775a7.5 7.5 0 0 0-1.756 2.697c-.375.97-.637 2.078-.708 3.697-.077 1.631-.095 2.149-.095 6.287s.018 4.656.089 6.281c.071 1.619.333 2.733.709 3.697a7.514 7.514 0 0 0 1.762 2.703 7.5 7.5 0 0 0 2.697 1.756c.97.375 2.078.637 3.697.708 1.625.072 2.143.089 6.281.089s4.656-.018 6.281-.089c1.619-.071 2.733-.333 3.697-.708a7.793 7.793 0 0 0 4.459-4.459c.375-.971.637-2.078.708-3.697.071-1.625.089-2.143.089-6.281s-.006-4.656-.078-6.281zm-2.744 12.443c-.066 1.488-.316 2.292-.524 2.828a5.054 5.054 0 0 1-2.893 2.893c-.536.208-1.345.458-2.828.524-1.607.072-2.09.089-6.156.089s-4.555-.018-6.156-.089c-1.488-.065-2.292-.315-2.828-.524a4.683 4.683 0 0 1-1.75-1.137 4.74 4.74 0 0 1-1.137-1.75c-.208-.536-.458-1.346-.524-2.828-.072-1.607-.089-2.09-.089-6.156s.018-4.555.089-6.156c.065-1.488.315-2.292.524-2.828a4.625 4.625 0 0 1 1.143-1.75 4.731 4.731 0 0 1 1.75-1.137c.536-.208 1.346-.458 2.828-.524 1.607-.071 2.09-.089 6.156-.089 4.072 0 4.554.018 6.156.089 1.488.066 2.292.316 2.828.524a4.683 4.683 0 0 1 1.75 1.137 4.74 4.74 0 0 1 1.137 1.75c.208.536.459 1.345.524 2.828.071 1.607.089 2.09.089 6.156s-.018 4.542-.089 6.15z"/><path d="M16.25 8.627c-4.322 0-7.829 3.507-7.829 7.829s3.507 7.829 7.829 7.829c4.322 0 7.829-3.507 7.829-7.829s-3.507-7.829-7.829-7.829zm0 12.907a5.079 5.079 0 1 1 .002-10.158 5.079 5.079 0 0 1-.002 10.158zM26.217 8.317a1.828 1.828 0 1 1-3.656 0 1.828 1.828 0 0 1 3.656 0z"/></symbol><symbol id="icon-linkedin" viewBox="0 0 32 32"><path d="M31.424 31.691v-.001h.008V20.513c0-5.468-1.177-9.68-7.57-9.68-3.073 0-5.135 1.686-5.977 3.285h-.089v-2.775h-6.061V31.69h6.311V21.615c0-2.653.503-5.218 3.788-5.218 3.237 0 3.285 3.027 3.285 5.388v9.906h6.305zM1.459 11.344h6.319v20.347H1.459V11.344zM4.615 1.215c-2.02 0-3.66 1.639-3.66 3.66s1.639 3.694 3.66 3.694c2.02 0 3.66-1.674 3.66-3.694a3.663 3.663 0 0 0-3.66-3.66z"/></symbol><symbol id="icon-scope" viewBox="0 0 32 32"><path fill="#212121" d="m30.773 22.098-8.443-8.505.937-4.615c.242.094.499.144.758.146h.006a2.159 2.159 0 1 0-2.008-1.435l-4.96.605L8.972.161a.534.534 0 0 0-.377-.16.532.532 0 0 0-.373.155L6.709 1.66a.534.534 0 0 0 0 .754l.814.826a14.943 14.943 0 0 0 2.519 17.663.513.513 0 0 0 .146.098c-.034.18-.051.364-.052.547v6.187h-6.4a2.67 2.67 0 0 0-2.667 2.667v1.067c0 .295.239.533.533.533h24.533a.533.533 0 0 0 .533-.533v-1.067a2.67 2.67 0 0 0-2.667-2.667h-6.4v-2.742a15.09 15.09 0 0 0 3.049.32 14.854 14.854 0 0 0 7.04-1.783l.818.823a.534.534 0 0 0 .377.16.532.532 0 0 0 .373-.155l1.513-1.504a.534.534 0 0 0 0-.754zM23.28 6.233a1.066 1.066 0 1 1 .752 1.822h-.003a1.067 1.067 0 0 1-.747-1.823h-.002zm-1.256 3.505-.598 2.946-1.175-1.182 1.774-1.763zm-.605-.902-1.92 1.909-1.485-1.493 3.405-.415zM24.004 28.8a1.6 1.6 0 0 1 1.6 1.6v.533H2.137V30.4a1.6 1.6 0 0 1 1.6-1.6h20.267zm-7.467-2.133v1.067h-5.333v-1.067h5.333zM11.204 25.6v-4.053c0-1.294 1.196-2.347 2.667-2.347s2.667 1.053 2.667 2.347V25.6h-5.333zm6.4-1.696v-2.357c0-1.882-1.675-3.413-3.733-3.413a3.8 3.8 0 0 0-3.281 1.786A13.87 13.87 0 0 1 8.311 4.033l18.602 18.708a13.818 13.818 0 0 1-9.309 1.163zm11.289-.684L7.836 2.039l.755-.752 7.935 7.98c.004 0 .006.007.01.01l13.115 13.191-.757.752z" style="fill:var(--color3, #212121)"/><path fill="#2196f3" d="M13.876 20.267h-.005a1.6 1.6 0 1 0-.004 3.2h.005a1.6 1.6 0 1 0 .004-3.2zm.373 1.978a.534.534 0 0 1-.752-.756.534.534 0 0 1 .373-.155.532.532 0 0 1 .373.911h.005z" style="fill:var(--color1, #2196f3)"/></symbol><symbol id="icon-tel" viewBox="0 0 20 32"><path d="M17 0H3C1.346 0 0 1.346 0 3v26c0 1.654 1.346 3 3 3h14c1.654 0 3-1.346 3-3V3c0-1.654-1.346-3-3-3zM3 2h14a1 1 0 0 1 1 1v21H2V3a1 1 0 0 1 1-1zm14 28H3a1 1 0 0 1-1-1v-3h16v3a1 1 0 0 1-1 1z"/></symbol><symbol id="icon-twitter" viewBox="0 0 40 32"><path d="M38.828 4.886a16.11 16.11 0 0 1-4.447 1.219 7.671 7.671 0 0 0 3.395-4.266 15.424 15.424 0 0 1-4.894 1.868 7.734 7.734 0 0 0-5.638-2.442c-4.273 0-7.713 3.468-7.713 7.72 0 .612.052 1.2.179 1.76-6.416-.313-12.094-3.388-15.908-8.073a7.769 7.769 0 0 0-1.056 3.901 7.728 7.728 0 0 0 3.428 6.414 7.63 7.63 0 0 1-3.487-.951v.085c0 3.751 2.675 6.866 6.184 7.584a7.693 7.693 0 0 1-2.024.254c-.494 0-.993-.028-1.461-.132 1 3.056 3.838 5.304 7.212 5.376a15.509 15.509 0 0 1-9.569 3.292c-.633 0-1.24-.028-1.847-.106 3.419 2.205 7.471 3.464 11.84 3.464 14.202 0 21.967-11.765 21.967-21.962 0-.341-.012-.671-.028-.998 1.532-1.087 2.819-2.445 3.868-4.007z"/></symbol><symbol id="icon-watch" viewBox="0 0 32 32"><path fill="#212121" d="M31.297 15.301C31.295 6.849 24.442-.002 15.989 0S.686 6.855.688 15.308a15.304 15.304 0 0 0 10.649 14.576.662.662 0 0 0 .529-.065.637.637 0 0 0 .283-.356l3.865-12.25a1.912 1.912 0 1 0-.84-3.635l-5.106-5.107a.637.637 0 0 0-.902.902l5.103 5.109a1.876 1.876 0 0 0 .536 2.309l-3.683 11.673C3.844 25.783.118 17.71 2.799 10.432S13.553-.572 20.831 2.109s11.004 10.754 8.323 18.032a14.042 14.042 0 0 1-7.462 7.973l-.398-1.874a.638.638 0 0 0-1.048-.344l-3.837 3.426a.637.637 0 0 0 .231 1.084l4.899 1.563a.638.638 0 0 0 .819-.74l-.391-1.839a15.255 15.255 0 0 0 9.329-14.089zm-15.305-.637a.638.638 0 1 1 0 1.277.638.638 0 0 1 0-1.277zm2.101 14.864 2.184-1.948.603 2.84-2.787-.892z" style="fill:var(--color3, #212121)"/><path fill="#2196f3" d="M15.354 3.185V4.46a.638.638 0 1 0 1.276 0V3.185a.638.638 0 0 0-1.276 0zM3.876 14.664a.638.638 0 0 0 0 1.276h1.275a.638.638 0 1 0 0-1.276H3.876zM28.108 15.939a.638.638 0 1 0 0-1.276h-1.275a.638.638 0 0 0 0 1.276h1.275z" style="fill:var(--color1, #2196f3)"/></symbol><symbol id="icon-close" viewBox="0 0 32 32"><path d="M26.667 7.303l-1.97-1.97-7.808 7.808-7.808-7.808-1.97 1.97 7.808 7.808-7.808 7.808 1.97 1.97 7.808-7.808 7.808 7.808 1.97-1.97-7.808-7.808 7.808-7.808z"></path></symbol><symbol id="icon-send" viewBox="0 0 32 32"><path fill="#fff" style="fill: var(--color1, #fff)" d="M32 0l-32 18 10.227 3.788 15.773-14.788-11.998 16.186 0.010 0.004-0.012-0.004v8.814l5.735-6.691 7.265 2.691 5-28z"></path></symbol><symbol id="icon-person" viewBox="0 0 32 32"><path d="M16 16c4.42 0 8-3.58 8-8s-3.58-8-8-8c-4.42 0-8 3.58-8 8s3.58 8 8 8zM16 20c-5.34 0-16 2.68-16 8v2c0 1.1 0.9 2 2 2h28c1.1 0 2-0.9 2-2v-2c0-5.32-10.66-8-16-8z"></path></symbol><symbol id="icon-phone" viewBox="0 0 32 32"><path d="M27.419 20.852l-4.201-0.48c-1.009-0.116-2.002 0.232-2.713 0.943l-3.044 3.044c-4.681-2.382-8.519-6.203-10.901-10.901l3.060-3.060c0.711-0.711 1.059-1.704 0.943-2.713l-0.48-4.168c-0.198-1.671-1.604-2.928-3.292-2.928h-2.862c-1.869 0-3.424 1.555-3.308 3.424 0.877 14.126 12.174 25.407 26.284 26.284 1.869 0.116 3.424-1.439 3.424-3.308v-2.861c0.016-1.671-1.241-3.077-2.911-3.275z"></path></symbol><symbol id="icon-mail" viewBox="0 0 43 32"><path d="M37.333 0h-32c-2.2 0-3.98 1.8-3.98 4l-0.020 24c0 2.2 1.8 4 4 4h32c2.2 0 4-1.8 4-4v-24c0-2.2-1.8-4-4-4zM36.533 8.5l-14.14 8.84c-0.64 0.4-1.48 0.4-2.12 0l-14.14-8.84c-0.5-0.32-0.8-0.86-0.8-1.44 0-1.34 1.46-2.14 2.6-1.44l13.4 8.38 13.4-8.38c1.14-0.7 2.6 0.1 2.6 1.44 0 0.58-0.3 1.12-0.8 1.44z"></path></symbol></defs></svg>