<svg width="21" height="17" viewBox="0 0 21 17" fill="none" xmlns="http://www.w3.org/2000/svg">
<path d="M20.6272 2.59587C19.8834 2.92212 19.0909 3.13837 18.2647 3.24337C19.1147 2.73587 19.7634 1.93837 20.0684 0.977119C19.2759 1.44962 18.4009 1.78337 17.4684 1.96962C16.7159 1.16837 15.6434 0.672119 14.4734 0.672119C12.2034 0.672119 10.3759 2.51462 10.3759 4.77337C10.3759 5.09837 10.4034 5.41087 10.4709 5.70837C7.0622 5.54212 4.04595 3.90837 2.0197 1.41962C1.66595 2.03337 1.45845 2.73587 1.45845 3.49212C1.45845 4.91212 2.1897 6.17087 3.2797 6.89962C2.62095 6.88712 1.9747 6.69587 1.4272 6.39462C1.4272 6.40712 1.4272 6.42337 1.4272 6.43962C1.4272 8.43212 2.84845 10.0871 4.7122 10.4684C4.37845 10.5596 4.0147 10.6034 3.6372 10.6034C3.3747 10.6034 3.1097 10.5884 2.86095 10.5334C3.3922 12.1571 4.8997 13.3509 6.6922 13.3896C5.2972 14.4809 3.52595 15.1384 1.60845 15.1384C1.2722 15.1384 0.949697 15.1234 0.627197 15.0821C2.44345 16.2534 4.59595 16.9221 6.9172 16.9221C14.4622 16.9221 18.5872 10.6721 18.5872 5.25462C18.5872 5.07337 18.5809 4.89837 18.5722 4.72462C19.3859 4.14712 20.0697 3.42587 20.6272 2.59587Z" fill="#AFB1B8"/>
</svg>
